<svg width="587" height="375" viewBox="0 0 587 375" fill="none" xmlns="http://www.w3.org/2000/svg">
<path d="M398.318 113.978C397.65 114.002 395.889 110.068 395.658 109.588C393.931 106.062 392.843 102.182 392.758 98.2423C392.573 90.3043 396.974 82.9942 401.571 76.8473C406.939 69.6649 412.68 62.7624 419.432 56.8179C429.861 47.6192 442.935 40.5176 457.102 40.0983C465.291 39.8568 473.381 41.7867 480.828 45.1453C480.656 45.0647 480.41 41.9051 480.319 41.5431C479.992 40.0277 479.508 38.5449 478.876 37.1258C477.351 33.638 474.956 30.5715 471.905 28.2876C463.552 22.0404 452.584 22.3303 442.784 23.9264C420.898 27.4909 402.403 41.1859 391.028 59.9966C384.139 71.4013 379.993 83.872 383.129 97.1909C384.784 104.249 388.649 113.37 397.021 113.96C397.454 113.989 397.895 113.993 398.318 113.978Z" fill="#1F2636"/>
<path d="M407.244 86.3218C407.244 86.3218 428.939 49.1494 467.74 48.4318C458.915 44.1846 433.786 47.2628 416.257 65.6095C408.318 73.8826 407.244 86.3218 407.244 86.3218Z" fill="#1F2636"/>
<path d="M404.285 131.713C404.285 131.713 406.835 89.1744 440.021 73.2094C473.206 57.2458 486.029 59.3526 499.621 68.3842C497.531 62.7619 489.248 48.6596 460.224 54.8928C446.046 57.9386 432.766 64.4979 422.036 74.2495C404.313 90.3503 394.633 112.672 404.285 131.713Z" fill="#1F2636"/>
<path d="M525.618 113.114C524.984 112.998 523.939 112.89 522.548 112.828C508.05 112.26 455.915 117.572 440.389 177.433C440.219 178.067 440.052 178.714 439.898 179.358C434.03 171.459 429.72 164.611 429.72 164.611C429.72 164.611 438.749 152.312 430.66 139.143C424.877 129.999 414.021 133.463 413.116 133.691C412.198 133.922 409.905 134.101 410.513 126.908C410.513 126.908 417.083 75.2709 481.053 69.1771C494.711 68.8156 514.804 90.1121 525.618 113.114Z" fill="#1F2636"/>
<path d="M454.463 175.009C454.463 175.009 451.231 157.705 478.133 138.633C496.143 125.36 511.104 124.381 512.825 126.738C514.443 129.12 513.333 130.007 510.679 130.554C508.026 131.101 484.532 140.017 474.068 151.912C463.604 163.808 458.091 173.691 457.618 174.214C457.145 174.737 455.287 177.187 454.463 175.009Z" fill="#1F2636"/>
<path d="M561.869 149.758C548.705 127.801 534.048 124.09 496.3 140.557C472.824 150.797 444.721 186.878 455.649 214.858C464.957 238.706 496.065 241.073 521.872 229.879C545.362 219.693 580.565 180.959 561.869 149.758Z" fill="#1F2636"/>
<path d="M524.359 117.506C522.777 117.011 511.573 114.672 493.551 123.585C475.526 132.486 460.398 146.555 456.14 154.214C451.879 161.86 442.819 187.078 442.819 187.078L439.898 179.357C453.75 117.002 507.851 111.906 522.362 112.471C526.831 113.292 524.912 112.279 526.193 114.198C528.541 117.731 525.929 118.004 524.359 117.506Z" fill="#1F2636"/>
<path d="M388.305 153.696C388.305 153.696 400.131 165.922 402.124 178.362C412.239 174.195 430.89 164.724 427.326 150.577C423.761 136.431 412.861 137.48 410.232 139.598C407.616 141.713 393.124 151.592 388.305 153.696Z" fill="#1F2636"/>
<path d="M363.374 162.419C368.474 164.158 380.513 171.014 382.948 197.266C384.636 203.312 401.182 204.803 399.908 189.433C398.622 174.067 388.705 146.932 374.771 148.112C363.503 149.067 360.832 154.35 360.771 158.853C360.754 160.477 361.839 161.893 363.374 162.419Z" fill="#1F2636"/>
<path d="M351.452 171.149C351.452 171.149 364.232 165.987 368.917 172.087C373.616 178.183 375.143 192.92 374.877 195.739C374.623 198.554 360.316 207.255 345.485 215.844C330.667 224.43 130.002 350.29 115.641 357.467C101.266 364.649 69.6484 379.085 60.1476 349.126C51.3494 321.901 92.1385 305.283 105.193 298.046C118.247 290.81 351.452 171.149 351.452 171.149Z" fill="#1F2636"/>
<path d="M476.017 226.389C474.729 221.387 474.361 216.158 474.463 210.945C474.649 205.732 475.316 200.468 476.778 195.357C479.612 185.156 485.311 175.415 493.503 168.306C497.571 164.752 502.117 161.786 506.915 159.434C508.136 158.878 509.371 158.376 510.586 157.851C511.21 157.597 511.812 157.313 512.442 157.087L514.322 156.469C515.594 156.062 516.845 155.623 518.1 155.256L521.952 154.337C532.223 152.045 542.732 151.788 552.938 153.165C542.747 154.576 532.744 156.24 523.336 159.394L519.826 160.578L516.407 161.964L514.699 162.661L513.057 163.457C511.97 163.998 510.862 164.513 509.779 165.073C505.528 167.41 501.525 170.132 497.923 173.296C490.656 179.6 485.283 187.852 481.742 196.992C479.965 201.563 478.617 206.364 477.699 211.29C476.711 216.211 476.207 221.248 476.017 226.389Z" fill="#1F2636"/>
<path d="M392.494 112.695C391.827 112.719 390.065 108.785 389.835 108.306C388.107 104.779 387.02 100.9 386.935 96.9596C386.75 89.0216 391.15 81.7115 395.748 75.5647C401.116 68.3822 406.857 61.4797 413.609 55.5352C424.037 46.3365 437.112 39.2349 451.279 38.8156C459.468 38.5741 467.558 40.5041 475.004 43.8626C474.833 43.7821 474.587 40.6224 474.496 40.2604C474.169 38.745 473.685 37.2622 473.053 35.8431C471.527 32.3553 469.132 29.2889 466.082 27.0049C457.729 20.7577 446.761 21.0476 436.96 22.6438C415.075 26.2082 396.58 39.9032 385.205 58.7139C378.316 70.1187 374.17 82.5894 377.306 95.9082C378.96 102.966 382.826 112.087 391.197 112.677C391.631 112.707 392.072 112.71 392.494 112.695Z" fill="#E90C61"/>
<path d="M401.422 85.0392C401.422 85.0392 423.117 47.8667 461.918 47.1492C453.093 42.902 427.963 45.9802 410.435 64.3268C402.495 72.5999 401.422 85.0392 401.422 85.0392Z" fill="#E90C61"/>
<path d="M398.461 130.431C398.461 130.431 401.012 87.8918 434.197 71.9268C467.383 55.9632 480.206 58.07 493.798 67.1016C491.708 61.4792 483.424 47.377 454.401 53.6102C440.222 56.656 426.943 63.2153 416.213 72.9669C398.49 89.0677 388.81 111.389 398.461 130.431Z" fill="#E90C61"/>
<path d="M519.794 111.831C519.16 111.715 518.116 111.607 516.725 111.545C502.227 110.977 450.091 116.289 434.566 176.15C434.396 176.784 434.229 177.431 434.075 178.075C428.207 170.175 423.897 163.328 423.897 163.328C423.897 163.328 432.926 151.029 424.836 137.86C419.054 128.715 408.197 132.179 407.292 132.407C406.374 132.639 404.082 132.818 404.69 125.624C404.69 125.624 411.259 73.9878 475.229 67.8939C488.888 67.5325 508.98 88.829 519.794 111.831Z" fill="#E90C61"/>
<path d="M448.64 173.726C448.64 173.726 445.408 156.422 472.31 137.35C490.32 124.076 505.281 123.098 507.002 125.454C508.62 127.837 507.51 128.724 504.856 129.27C502.203 129.818 478.709 138.733 468.245 150.629C457.781 162.525 452.268 172.407 451.795 172.931C451.322 173.454 449.464 175.904 448.64 173.726Z" fill="#E90C61"/>
<path d="M556.046 148.475C542.883 126.518 528.226 122.808 490.478 139.275C467.002 149.514 438.899 185.595 449.826 213.576C459.135 237.423 490.242 239.79 516.05 228.596C539.539 218.41 574.743 179.677 556.046 148.475Z" fill="#E90C61"/>
<path d="M518.536 116.223C516.954 115.728 505.749 113.39 487.728 122.303C469.702 131.203 454.575 145.272 450.317 152.931C446.056 160.577 436.996 185.795 436.996 185.795L434.075 178.075C447.926 115.719 502.027 110.623 516.539 111.188C521.008 112.009 519.089 110.996 520.37 112.915C522.718 116.448 520.105 116.722 518.536 116.223Z" fill="#E90C61"/>
<path d="M382.482 152.413C382.482 152.413 394.307 164.64 396.3 177.079C406.416 172.912 425.067 163.442 421.502 149.295C417.938 135.149 407.037 136.197 404.409 138.315C401.793 140.431 387.3 150.31 382.482 152.413Z" fill="#E90C61"/>
<path d="M357.551 161.137C362.65 162.876 374.69 169.731 377.125 195.984C378.813 202.029 395.358 203.52 394.085 188.151C392.798 172.785 382.881 145.649 368.947 146.829C357.679 147.785 355.009 153.068 354.947 157.57C354.93 159.194 356.016 160.61 357.551 161.137Z" fill="#E90C61"/>
<path d="M345.629 169.866C345.629 169.866 358.409 164.704 363.094 170.804C367.793 176.9 369.32 191.637 369.053 194.456C368.8 197.271 354.492 205.972 339.661 214.561C324.843 223.147 124.179 349.008 109.817 356.185C95.4429 363.366 63.8252 377.802 54.3244 347.843C45.5262 320.618 86.3153 304 99.3695 296.763C112.424 289.528 345.629 169.866 345.629 169.866Z" fill="#E90C61"/>
<path d="M470.438 226.076C469.15 221.074 468.782 215.845 468.884 210.631C469.07 205.419 469.737 200.155 471.199 195.044C474.033 184.843 479.732 175.102 487.924 167.993C491.992 164.439 496.538 161.473 501.336 159.12C502.557 158.565 503.792 158.063 505.007 157.538C505.631 157.283 506.233 157 506.863 156.774L508.742 156.156C510.015 155.748 511.265 155.31 512.52 154.942L516.373 154.024C526.644 151.732 537.153 151.475 547.359 152.851C537.168 154.263 527.165 155.926 517.757 159.081L514.247 160.265L510.828 161.651L509.12 162.348L507.478 163.144C506.391 163.685 505.283 164.199 504.2 164.76C499.949 167.097 495.946 169.819 492.343 172.983C485.077 179.287 479.703 187.539 476.162 196.678C474.385 201.25 473.038 206.051 472.12 210.977C471.132 215.898 470.628 220.935 470.438 226.076Z" fill="#E90C61"/>
</svg>
