<svg width="618" height="525" viewBox="0 0 618 525" fill="none" xmlns="http://www.w3.org/2000/svg">
<path d="M539.393 334.23C539.393 334.23 539.874 252.489 539.874 252.471C539.924 243.037 550.182 232.024 560.303 235.898C565.133 237.746 567.513 243.24 569.883 247.489C571.959 251.204 574.063 254.905 576.168 258.604C581.283 267.593 586.427 276.563 591.571 285.529C593.45 288.802 595.328 292.073 597.217 295.343C597.699 296.18 599.45 298.222 599.45 299.226C599.45 299.222 599.45 234.619 599.45 234.619C599.45 231.357 600.473 228.138 602.548 225.617C604.063 223.772 606.158 222.189 608.912 222.189C615.502 222.189 616.898 228.177 616.898 232.256C616.898 236.331 616.898 313.586 616.898 313.748C616.898 320.341 610.574 324.698 604.456 324.916C598.938 325.114 595.594 321.828 592.85 317.481C591.375 315.137 557.274 251.899 557.274 251.899C557.185 267.95 557.107 284 557.028 300.051C556.998 305.39 556.969 310.728 556.939 316.066C556.91 321.832 558.041 328.667 554.894 333.746C552.012 338.397 539.491 343.334 539.393 334.23Z" fill="#1F2636"/>
<path d="M532.959 332.29L532.959 332.269L532.959 332.248L535.459 332.263C532.959 332.248 532.959 332.248 532.959 332.247L532.959 332.245L532.959 332.233L532.959 332.189L532.96 332.014L532.964 331.33L532.98 328.736L533.034 319.476L533.2 291.375L533.399 257.674L533.441 250.504L533.441 250.491C533.47 244.95 536.442 239.201 540.707 235.367C545.004 231.505 551.064 229.223 557.263 231.595L557.264 231.595C560.34 232.773 562.499 235.062 564.13 237.393C565.328 239.105 566.372 241.047 567.281 242.737C567.579 243.292 567.863 243.82 568.133 244.304C570.203 248.009 572.302 251.701 574.408 255.4L572.349 256.572L574.408 255.4C579.52 264.385 584.662 273.352 589.806 282.318C590.876 284.182 591.945 286.044 593.016 287.905V287.863V287.724V287.585V287.445V287.304V287.163V287.02V286.877V286.733V286.589V286.444V286.298V286.151V286.004V285.856V285.707V285.557V285.407V285.257V285.105V284.953V284.8V284.647V284.493V284.338V284.183V284.027V283.871V283.714V283.556V283.397V283.238V283.079V282.919V282.758V282.597V282.435V282.273V282.11V281.946V281.782V281.618V281.453V281.287V281.121V280.954V280.787V280.619V280.451V280.282V280.113V279.944V279.774V279.603V279.432V279.261V279.089V278.916V278.743V278.57V278.397V278.222V278.048V277.873V277.698V277.522V277.346V277.169V276.992V276.815V276.638V276.46V276.281V276.103V275.923V275.744V275.564V275.384V275.204V275.023V274.842V274.661V274.479V274.297V274.115V273.933V273.75V273.567V273.384V273.2V273.016V272.832V272.648V272.463V272.279V272.094V271.908V271.723V271.537V271.351V271.165V270.979V270.793V270.606V270.419V270.233V270.045V269.858V269.671V269.483V269.296V269.108V268.92V268.732V268.544V268.355V268.167V267.978V267.79V267.601V267.412V267.224V267.035V266.846V266.657V266.468V266.279V266.089V265.9V265.711V265.522V265.333V265.143V264.954V264.765V264.576V264.386V264.197V264.008V263.819V263.629V263.44V263.251V263.062V262.873V262.684V262.496V262.307V262.118V261.93V261.741V261.553V261.364V261.176V260.988V260.8V260.613V260.425V260.237V260.05V259.863V259.676V259.489V259.302V259.115V258.929V258.743V258.557V258.371V258.185V258V257.815V257.63V257.445V257.26V257.076V256.892V256.708V256.525V256.341V256.158V255.976V255.793V255.611V255.429V255.247V255.066V254.885V254.704V254.524V254.344V254.164V253.985V253.806V253.627V253.449V253.271V253.093V252.916V252.739V252.562V252.386V252.211V252.035V251.86V251.686V251.512V251.338V251.165V250.992V250.82V250.648V250.476V250.305V250.135V249.965V249.795V249.626V249.457V249.289V249.122V248.954V248.788V248.622V248.456V248.291V248.126V247.962V247.799V247.636V247.474V247.312V247.15V246.99V246.83V246.67V246.511V246.353V246.195V246.038V245.882V245.726V245.57V245.416V245.262V245.108V244.956V244.804V244.652V244.501V244.351V244.202V244.053V243.905V243.758V243.611V243.465V243.32V243.176V243.032V242.889V242.746V242.605V242.464V242.324V242.185V242.046V241.908V241.771V241.635V241.5V241.365V241.231V241.098V240.966V240.834V240.704V240.574V240.445V240.317V240.189V240.063V239.937V239.813V239.689V239.566V239.444V239.323V239.202V239.083V238.964V238.847V238.73V238.614V238.499V238.385V238.272V238.16V238.049V237.939V237.83V237.722V237.614V237.508V237.403V237.298V237.195V237.093V236.991V236.891V236.792V236.693V236.596V236.5V236.405V236.311V236.218V236.126V236.035V235.945V235.856V235.768V235.682V235.596V235.512V235.428V235.346V235.265V235.185V235.106V235.028V234.952V234.876V234.802V234.729V234.657V234.586V234.516V234.448V234.38V234.314V234.249V234.186V234.123V234.062V234.002V233.943V233.885V233.829V233.774V233.72V233.667V233.616V233.566V233.517V233.469V233.423V233.378V233.334V233.292V233.251V233.211V233.172V233.135V233.099V233.065V233.032V233V232.969V232.94V232.913V232.886V232.861V232.838V232.815V232.795V232.775V232.757V232.74V232.725V232.711V232.699V232.688V232.679V232.671V232.664V232.659V232.655V232.653C593.016 232.653 593.016 232.652 595.516 232.652H593.016C593.016 228.881 594.198 225.082 596.682 222.063C598.433 219.931 601.167 217.722 604.978 217.722C609.21 217.722 612.005 219.734 613.601 222.464C615.092 225.016 615.465 228.041 615.465 230.289V230.314V230.34V230.368V230.398V230.429V230.462V230.497V230.533V230.571V230.61V230.651V230.694V230.738V230.784V230.832V230.881V230.931V230.983V231.037V231.092V231.149V231.208V231.267V231.329V231.392V231.456V231.522V231.589V231.658V231.729V231.8V231.874V231.949V232.025V232.102V232.181V232.262V232.344V232.427V232.512V232.598V232.686V232.775V232.865V232.957V233.05V233.145V233.241V233.338V233.436V233.536V233.637V233.74V233.844V233.949V234.056V234.163V234.272V234.383V234.494V234.607V234.722V234.837V234.954V235.072V235.191V235.311V235.433V235.556V235.68V235.805V235.932V236.059V236.188V236.318V236.449V236.582V236.715V236.85V236.986V237.122V237.261V237.4V237.54V237.682V237.824V237.968V238.112V238.258V238.405V238.553V238.702V238.852V239.003V239.155V239.309V239.463V239.618V239.774V239.932V240.09V240.249V240.409V240.571V240.733V240.896V241.06V241.225V241.392V241.559V241.726V241.895V242.065V242.236V242.407V242.58V242.753V242.928V243.103V243.279V243.456V243.634V243.812V243.992V244.172V244.353V244.535V244.718V244.902V245.086V245.272V245.458V245.644V245.832V246.021V246.21V246.4V246.59V246.782V246.974V247.167V247.36V247.555V247.75V247.946V248.142V248.339V248.537V248.736V248.935V249.135V249.335V249.536V249.738V249.941V250.144V250.348V250.552V250.757V250.963V251.169V251.376V251.583V251.791V251.999V252.208V252.418V252.628V252.839V253.05V253.262V253.474V253.687V253.901V254.115V254.329V254.544V254.759V254.975V255.191V255.408V255.625V255.843V256.061V256.28V256.499V256.718V256.938V257.158V257.379V257.6V257.821V258.043V258.265V258.488V258.711V258.934V259.158V259.382V259.606V259.831V260.056V260.281V260.507V260.733V260.959V261.186V261.412V261.64V261.867V262.095V262.322V262.551V262.779V263.008V263.236V263.465V263.695V263.924V264.154V264.384V264.614V264.844V265.075V265.305V265.536V265.767V265.998V266.229V266.461V266.692V266.924V267.156V267.387V267.619V267.851V268.083V268.316V268.548V268.78V269.013V269.245V269.478V269.71V269.943V270.176V270.408V270.641V270.874V271.106V271.339V271.572V271.804V272.037V272.27V272.502V272.735V272.967V273.2V273.432V273.664V273.896V274.128V274.36V274.592V274.824V275.056V275.287V275.519V275.75V275.981V276.212V276.443V276.674V276.905V277.135V277.365V277.595V277.825V278.055V278.284V278.513V278.742V278.971V279.2V279.428V279.656V279.884V280.111V280.339V280.566V280.792V281.019V281.245V281.471V281.696V281.921V282.146V282.371V282.595V282.819V283.043V283.266V283.489V283.711V283.933V284.155V284.376V284.597V284.818V285.038V285.258V285.477V285.696V285.914V286.132V286.35V286.567V286.783V286.999V287.215V287.43V287.645V287.859V288.073V288.286V288.499V288.711V288.923V289.134V289.344V289.554V289.764V289.973V290.181V290.389V290.596V290.803V291.009V291.214V291.419V291.623V291.826V292.029V292.232V292.433V292.634V292.834V293.034V293.233V293.431V293.629V293.826V294.022V294.218V294.413V294.607V294.8V294.993V295.185V295.376V295.566V295.756V295.945V296.133V296.32V296.507V296.693V296.878V297.062V297.245V297.428V297.61V297.791V297.971V298.15V298.328V298.506V298.682V298.858V299.033V299.207V299.38V299.552V299.724V299.894V300.064V300.232V300.4V300.567V300.732V300.897V301.061V301.224V301.386V301.547V301.707V301.866V302.023V302.18V302.336V302.491V302.645V302.798V302.95V303.101V303.25V303.399V303.547V303.693V303.839V303.983V304.126V304.268V304.409V304.549V304.688V304.826V304.962V305.098V305.232V305.365V305.497V305.628V305.758V305.886V306.013V306.14V306.264V306.388V306.51V306.632V306.752V306.87V306.988V307.104V307.219V307.333V307.446V307.557V307.667V307.775V307.883V307.989V308.094V308.197V308.299V308.4V308.499V308.597V308.694V308.79V308.884V308.976V309.068V309.158V309.246V309.333V309.419V309.503V309.586V309.668V309.748V309.826V309.904V309.979V310.054V310.126V310.198V310.268V310.336V310.403V310.468V310.532V310.595V310.656V310.715V310.773V310.829V310.884V310.937V310.989V311.039V311.087V311.134V311.18V311.223V311.265V311.306V311.345V311.382V311.418V311.452V311.485V311.515V311.544V311.572V311.598V311.622V311.644V311.665V311.684V311.702V311.717V311.731V311.744V311.754V311.763V311.77V311.776V311.779V311.781C615.465 320.208 607.527 325.201 600.612 325.448C593.745 325.694 589.71 321.454 586.802 316.848L586.801 316.845C586.004 315.581 577.041 299.053 568.376 283.033C564.021 274.981 559.712 267.002 556.492 261.037C556.251 260.59 556.016 260.155 555.787 259.732C555.72 272.52 555.657 285.307 555.594 298.096L555.594 298.098L555.506 314.112C555.506 314.112 555.506 314.113 555.506 314.113C555.5 315.269 555.543 316.469 555.589 317.75C555.597 317.995 555.606 318.243 555.615 318.494C555.668 320.03 555.711 321.661 555.65 323.29C555.53 326.528 554.993 330.016 553.085 333.096C552.085 334.71 550.411 336.138 548.648 337.225C546.854 338.332 544.735 339.229 542.641 339.634C540.605 340.028 538.214 340.024 536.224 338.822C534.059 337.514 532.99 335.181 532.959 332.29Z" fill="#E90C61" stroke="white" stroke-width="5"/>
<path d="M506.414 312.427C506.414 323.382 497.533 332.263 486.576 332.263C479.956 332.263 474.596 326.897 474.596 320.278V286.585C474.596 275.321 483.723 266.189 494.995 266.189H495.143C501.369 266.189 506.414 271.235 506.414 277.46V312.427ZM500.08 246.576H499.736C474.664 246.576 454.344 266.897 454.344 291.965V322.254C454.344 336.984 466.284 348.926 481.018 348.926C505.401 348.926 525.161 329.162 525.161 304.781V271.657C525.161 257.805 513.929 246.576 500.08 246.576Z" fill="#1F2636"/>
<path d="M482.641 327.796C492.218 327.796 499.98 320.034 499.98 310.46V275.493C499.98 270.649 496.053 266.722 491.208 266.722H491.06C481.169 266.722 473.161 274.734 473.161 284.618V318.311C473.161 323.551 477.404 327.796 482.641 327.796ZM495.801 242.109H496.145C511.375 242.109 523.727 254.457 523.727 269.69V302.814C523.727 328.575 502.848 349.458 477.084 349.458C460.969 349.458 447.909 336.398 447.909 320.287V289.998C447.909 263.549 469.349 242.109 495.801 242.109Z" fill="#E90C61" stroke="white" stroke-width="5"/>
<path d="M440.917 261.937V363.535C440.917 363.535 438.38 373.023 427.383 372.445C422.869 372.47 420.675 369.552 420.675 365.154C420.675 360.758 420.675 273.046 420.675 273.046C420.675 273.046 419.082 263.846 440.917 261.937Z" fill="#1F2636"/>
<path d="M436.765 257.48L439.483 257.242V259.97V361.567V361.896L439.398 362.213L436.983 361.567C439.398 362.213 439.397 362.215 439.397 362.216L439.396 362.219L439.394 362.226L439.39 362.241L439.378 362.283C439.369 362.315 439.357 362.357 439.342 362.407C439.311 362.507 439.268 362.641 439.21 362.804C439.096 363.129 438.924 363.573 438.681 364.096C438.197 365.135 437.417 366.516 436.222 367.884C433.78 370.679 429.703 373.289 423.388 372.978C420.592 372.977 418.187 372.05 416.517 370.134C414.882 368.259 414.241 365.767 414.241 363.187V363.161V363.132V363.102V363.069V363.035V362.999V362.961V362.921V362.879V362.836V362.79V362.743V362.694V362.643V362.591V362.536V362.48V362.422V362.362V362.301V362.238V362.173V362.106V362.038V361.967V361.895V361.822V361.747V361.67V361.591V361.51V361.428V361.345V361.259V361.172V361.084V360.993V360.902V360.808V360.713V360.616V360.518V360.418V360.317V360.213V360.109V360.003V359.895V359.786V359.675V359.563V359.449V359.333V359.217V359.098V358.978V358.857V358.734V358.61V358.484V358.357V358.229V358.099V357.967V357.834V357.7V357.565V357.427V357.289V357.149V357.008V356.865V356.721V356.576V356.43V356.282V356.132V355.982V355.83V355.677V355.522V355.366V355.209V355.051V354.891V354.731V354.568V354.405V354.24V354.075V353.908V353.739V353.57V353.399V353.228V353.054V352.88V352.705V352.528V352.351V352.172V351.992V351.811V351.629V351.446V351.261V351.076V350.889V350.701V350.513V350.323V350.132V349.94V349.747V349.553V349.358V349.162V348.965V348.767V348.568V348.368V348.167V347.965V347.762V347.558V347.353V347.147V346.941V346.733V346.524V346.315V346.104V345.893V345.681V345.468V345.254V345.039V344.823V344.607V344.389V344.171V343.952V343.732V343.511V343.29V343.068V342.845V342.621V342.396V342.171V341.945V341.718V341.49V341.262V341.032V340.803V340.572V340.341V340.109V339.876V339.643V339.409V339.174V338.939V338.703V338.466V338.229V337.991V337.752V337.513V337.273V337.033V336.792V336.55V336.308V336.066V335.822V335.579V335.334V335.089V334.844V334.598V334.352V334.105V333.857V333.609V333.361V333.112V332.862V332.613V332.362V332.111V331.86V331.609V331.357V331.104V330.851V330.598V330.344V330.09V329.836V329.581V329.326V329.07V328.815V328.558V328.302V328.045V327.788V327.53V327.273V327.014V326.756V326.497V326.239V325.979V325.72V325.46V325.2V324.94V324.68V324.419V324.158V323.897V323.636V323.375V323.113V322.851V322.59V322.327V322.065V321.803V321.54V321.278V321.015V320.752V320.489V320.226V319.963V319.7V319.437V319.173V318.91V318.647V318.383V318.12V317.856V317.592V317.329V317.065V316.802V316.538V316.275V316.011V315.748V315.484V315.221V314.958V314.694V314.431V314.168V313.905V313.642V313.379V313.117V312.854V312.591V312.329V312.067V311.805V311.543V311.281V311.02V310.758V310.497V310.236V309.976V309.715V309.455V309.194V308.935V308.675V308.416V308.156V307.898V307.639V307.381V307.123V306.865V306.607V306.35V306.094V305.837V305.581V305.325V305.07V304.815V304.56V304.305V304.051V303.798V303.545V303.292V303.039V302.787V302.536V302.285V302.034V301.784V301.534V301.285V301.036V300.788V300.54V300.292V300.045V299.799V299.553V299.308V299.063V298.819V298.575V298.332V298.089V297.847V297.606V297.365V297.125V296.885V296.646V296.408V296.17V295.933V295.696V295.46V295.225V294.99V294.756V294.523V294.291V294.059V293.828V293.597V293.367V293.138V292.91V292.682V292.456V292.23V292.004V291.78V291.556V291.333V291.111V290.89V290.669V290.449V290.23V290.012V289.795V289.579V289.363V289.148V288.935V288.722V288.51V288.298V288.088V287.879V287.67V287.463V287.256V287.051V286.846V286.642V286.439V286.237V286.037V285.837V285.638V285.44V285.243V285.047V284.852V284.658V284.466V284.274V284.083V283.894V283.705V283.518V283.331V283.146V282.962V282.778V282.596V282.416V282.236V282.057V281.88V281.703V281.528V281.354V281.181V281.01V280.839V280.67V280.502V280.335V280.17V280.005V279.842V279.68V279.52V279.36V279.202V279.045V278.89V278.735V278.582V278.431V278.28V278.131V277.983V277.837V277.692V277.548V277.406V277.265V277.125V276.987V276.85V276.715V276.581V276.448V276.317V276.187V276.059V275.932V275.807V275.683V275.56V275.439V275.319V275.201V275.085V274.97V274.856V274.744V274.633V274.524V274.417V274.311V274.207V274.104V274.003V273.903V273.805V273.708V273.614V273.52V273.429V273.339V273.25V273.164V273.078V272.995V272.913V272.833V272.755V272.678V272.603V272.53V272.458V272.388V272.32V272.254V272.189V272.126V272.065V272.005V271.948V271.892V271.838V271.785V271.735V271.686V271.639V271.594V271.551V271.509V271.47V271.432V271.396V271.362V271.33V271.3V271.272V271.245V271.225C414.24 271.219 414.24 271.213 414.239 271.207C414.226 271.07 414.216 270.896 414.215 270.689C414.213 270.275 414.251 269.727 414.389 269.086C414.668 267.785 415.347 266.166 416.832 264.549C419.774 261.345 425.575 258.458 436.765 257.48Z" fill="#E90C61" stroke="white" stroke-width="5"/>
<path d="M284.48 371.027C291.276 369.284 295.388 365.822 298.623 359.528C303.128 350.774 310.367 340.687 321.157 348.001C329.724 353.81 318.059 369.021 313.712 373.991C305.597 383.264 292.801 390.487 280.526 391.962C242.855 396.488 236.491 352.772 239.255 325.112C241.448 303.132 257.107 284.114 274.782 271.804C295.643 257.279 321.226 252.126 345.442 246.076C364.769 241.25 384.254 237.078 403.778 233.156C431.082 227.67 567.671 193.201 595.113 188.429C611.076 185.652 613.948 193.376 614.027 195.459C614.115 197.541 612.781 204.586 607.686 205.281C605.104 205.632 601.594 206.481 601.594 206.481L392.555 256.469L392.378 383.872C392.378 383.872 390.293 393.07 383.349 393.417C376.415 393.765 374.851 389.599 374.851 386.996C374.851 384.392 374.152 262.545 374.152 262.545C374.152 262.545 336.835 271.397 325.032 306.806C317.046 320.171 304.2 315.658 304.2 310.104C304.2 304.548 302.991 278.86 350.202 261.85C326.941 267.231 266.657 277.066 260.402 328.212C258.326 358.75 266.421 375.643 284.48 371.027Z" fill="#1F2636"/>
<path d="M292.466 354.942L292.466 354.943C290.961 357.87 289.32 360.008 287.367 361.608C285.421 363.204 283.044 364.363 279.925 365.163C275.811 366.215 272.507 365.984 269.865 364.842C267.226 363.701 264.964 361.529 263.157 358.174C259.483 351.357 257.937 340.108 258.957 325.007C261.967 300.602 277.801 285.958 296.122 276.656C305.152 272.071 314.684 268.837 323.444 266.409C313.37 272.653 307.19 279.318 303.424 285.535C297.713 294.962 297.75 303.058 297.764 306.25C297.765 306.398 297.766 306.535 297.766 306.661C297.766 309.061 299.143 311.055 300.899 312.37C302.676 313.7 305.035 314.513 307.597 314.605C312.845 314.795 318.852 311.995 323.244 304.646L323.384 304.412L323.47 304.154C329.128 287.179 340.909 276.527 351.393 270.085C356.631 266.866 361.514 264.719 365.081 263.379C366.078 263.005 366.97 262.694 367.737 262.441L367.748 264.357L367.827 278.196C367.892 289.66 367.98 304.972 368.067 320.366C368.242 351.162 368.416 382.261 368.416 383.553C368.416 385.294 368.931 387.677 370.753 389.593C372.636 391.575 375.545 392.672 379.539 392.472L292.466 354.942ZM292.466 354.942C294.738 350.527 297.896 345.347 302.13 342.273C304.3 340.698 306.838 339.612 309.724 339.544C312.615 339.475 315.592 340.433 318.625 342.489L318.626 342.489C321.536 344.462 322.728 347.315 322.784 350.325C322.838 353.194 321.873 356.198 320.611 358.92C318.073 364.391 313.887 369.647 311.659 372.194L311.658 372.195C303.175 381.89 289.831 389.447 276.889 391.002C266.956 392.195 258.883 390.218 252.476 385.955C246.11 381.717 241.604 375.365 238.497 368.154C232.309 353.792 231.429 335.472 232.833 321.421C235.127 298.433 251.423 278.843 269.418 266.31L269.418 266.31C288.504 253.022 311.441 247.419 333.255 242.09C335.822 241.463 338.373 240.84 340.901 240.208L340.902 240.208C360.281 235.369 379.808 231.188 399.351 227.262C411.14 224.894 443.749 217.079 479.208 208.581C484.632 207.281 490.122 205.966 495.615 204.651C536.918 194.765 578.404 184.927 592.225 182.524M292.466 354.942L592.653 184.987M599.369 206.248C599.402 206.241 599.448 206.232 599.508 206.22C599.626 206.195 599.796 206.16 600.007 206.114C600.429 206.022 601.02 205.888 601.703 205.719C602.974 205.404 604.633 204.949 606.12 204.39C609.76 203.754 611.757 200.889 612.769 198.477C613.814 195.987 614.123 193.313 614.066 191.921M599.369 206.248L592.653 184.987M599.369 206.248L599.363 206.249L391.118 255.01L390.943 380.433L390.943 380.711M599.369 206.248L390.943 380.711M614.066 191.921C614.065 191.917 614.065 191.914 614.065 191.91L611.567 192.017L614.066 191.922C614.066 191.922 614.066 191.921 614.066 191.921ZM614.066 191.921C613.997 190.115 612.876 186.916 609.469 184.609C606.027 182.278 600.588 181.069 592.225 182.524M592.225 182.524L592.653 184.987M592.225 182.524C592.225 182.524 592.225 182.524 592.225 182.524L592.653 184.987M388.443 380.429C390.881 380.982 390.881 380.983 390.881 380.984L390.881 380.986L390.879 380.991L390.877 381.003L390.869 381.036C390.862 381.063 390.854 381.099 390.843 381.143C390.821 381.23 390.789 381.351 390.748 381.499C390.665 381.796 390.54 382.208 390.368 382.699C390.027 383.672 389.486 384.994 388.683 386.347C387.119 388.986 384.245 392.237 379.539 392.472L388.443 380.429ZM388.443 380.429L390.881 380.982M388.443 380.429L390.881 380.982M390.943 380.711L390.881 380.982M390.943 380.711L390.881 380.982" fill="#E90C61" stroke="white" stroke-width="5"/>
<path d="M441.458 47.0803L387.401 61.9746C381.46 63.6113 377.722 69.4803 378.755 75.5558C379.945 82.5923 386.958 87.0607 393.843 85.1762L433.402 74.346C421.275 103.519 409.148 132.693 397.02 161.867C392.132 173.63 386.004 185.06 393.312 197.567C398.968 207.249 409.128 205.587 418.944 205.028C429.862 204.406 440.71 202.61 451.254 199.719C474.408 193.37 502.981 181.605 515.098 159.743C534.544 124.681 546.002 41.714 547.035 31.2999C547.792 23.7785 541.301 19.8786 534.15 22.9129C529.262 24.9853 525.987 29.6583 525.278 34.9165C523.341 49.3799 518.029 88.8646 517.646 89.62C517.183 90.5455 510.476 103.275 498.21 100.728C485.945 98.183 486.87 86.4568 486.634 79.3593C485.926 57.6331 492.85 31.2585 473.454 15.3728C464.208 7.7973 449.15 3.96728 438.094 9.79398C432.98 12.49 427.422 19.5855 429.006 25.9187C429.183 26.6131 430.403 35.4653 439.599 30.7795C448.795 26.0928 461.985 28.6963 465.634 43.2769C468.064 55.7732 467.887 89.62 468.408 94.4798C468.929 99.3407 470.897 121.558 490.568 121.558C510.24 121.558 514.174 113.92 514.174 113.92C514.174 113.92 504.456 147.709 482.936 159.512C461.415 171.315 419.751 180.34 416.741 180.34C413.731 180.34 406.797 181.034 410.957 171.778C415.128 162.521 459.33 58.84 459.33 58.84C459.33 58.84 463.756 48.7406 451.373 46.5256C448.078 45.9354 444.684 46.1912 441.458 47.0803Z" fill="#1F2636"/>
<path d="M505.138 118.897C503.97 121.838 502.418 125.4 500.47 129.177C495.416 138.971 487.893 149.817 477.8 155.353C467.308 161.107 451.749 166.252 438.296 169.976C431.599 171.829 425.478 173.316 420.854 174.337C418.541 174.848 416.613 175.24 415.181 175.503C414.464 175.635 413.885 175.732 413.451 175.795C413.046 175.853 412.858 175.869 412.816 175.872C412.808 175.873 412.805 175.873 412.807 175.873C412.56 175.873 412.322 175.876 412.087 175.879C411.47 175.887 410.881 175.895 410.245 175.845C409.371 175.776 408.829 175.615 408.542 175.437C408.405 175.353 408.279 175.27 408.239 174.828C408.183 174.212 408.339 172.983 409.303 170.838L505.138 118.897ZM505.138 118.897C501.177 120.658 495.292 122.091 486.634 122.091C481.211 122.091 476.879 120.548 473.473 118.063C470.098 115.6 467.759 112.307 466.128 108.974C463.026 102.638 462.303 95.767 462.023 93.1014C462.011 92.9861 461.999 92.8786 461.989 92.7794C461.844 91.4316 461.757 88.2636 461.663 84.2778C461.643 83.3907 461.622 82.4559 461.6 81.4813C461.521 77.9937 461.431 73.9966 461.304 69.8513C460.979 59.2022 460.419 47.8791 459.259 41.8526C457.608 35.3245 453.932 31.7347 449.865 30.169C445.692 28.5623 440.834 28.9843 436.801 31.0399L436.8 31.04C434.218 32.3559 431.902 32.8733 429.836 32.6069C427.714 32.3334 426.162 31.2731 425.093 30.0313C424.06 28.8327 423.474 27.4697 423.136 26.449C422.828 25.521 422.619 24.4539 422.649 24.5661L422.647 24.5581C421.631 20.4932 422.95 16.4266 424.99 13.1917C427.039 9.94267 430.025 7.18074 432.995 5.61537L432.995 5.61531C445.217 -0.826202 461.357 3.48494 471.104 11.4716C481.549 20.0259 484.806 31.3882 485.612 43.0362C486.014 48.8389 485.814 54.7958 485.567 60.5692C485.541 61.1906 485.514 61.8095 485.487 62.4259C485.262 67.5844 485.044 72.5643 485.199 77.3109C485.221 77.9896 485.235 78.68 485.248 79.3772C485.311 82.6016 485.377 85.9728 486.357 89.0179C486.928 90.7925 487.782 92.3243 489.053 93.5389C490.315 94.7435 492.116 95.7597 494.785 96.3136L494.785 96.3136C499.868 97.369 503.828 95.3136 506.736 92.6619C509.329 90.2973 510.902 87.6054 511.354 86.7684C511.361 86.728 511.37 86.6814 511.38 86.6281C511.435 86.3222 511.509 85.8744 511.601 85.2901C511.784 84.126 512.029 82.4778 512.32 80.4637C512.901 76.4384 513.66 70.9867 514.469 65.1013C516.086 53.3322 517.898 39.8487 518.867 32.6175L518.867 32.6157C519.682 26.5688 523.462 21.094 529.241 18.6442C533.403 16.8782 537.706 17.0041 540.963 19.0696C544.291 21.1795 546.049 25.0136 545.589 29.5833C545.062 34.8954 541.925 58.3221 536.487 84.8143C531.065 111.226 523.281 141.083 513.351 158.988C506.985 170.474 496.382 179.168 484.603 185.763C472.809 192.366 459.667 196.959 447.982 200.163L447.982 200.163C437.271 203.1 426.249 204.925 415.153 205.557C414.34 205.603 413.505 205.659 412.656 205.717C408.608 205.989 404.223 206.285 400.234 205.639C395.173 204.819 390.495 202.467 387.22 196.862L505.138 118.897ZM457.687 57.8738L457.664 57.9286L457.569 58.1511L457.198 59.0202L455.788 62.3268C454.571 65.18 452.828 69.2663 450.724 74.1988C446.515 84.0638 440.859 97.3136 435.073 110.853C423.511 137.908 411.403 166.176 409.304 170.837C409.304 170.837 409.304 170.836 409.304 170.836L457.687 57.8738ZM457.687 57.8738L457.688 57.8723L457.688 57.871L457.691 57.8646L457.694 57.8581L457.695 57.8546L457.698 57.8488L457.716 57.8061C457.73 57.7726 457.748 57.7292 457.768 57.6764C457.81 57.5709 457.864 57.4275 457.925 57.2505C458.047 56.898 458.199 56.4054 458.333 55.8106C458.597 54.64 458.817 52.9718 458.531 51.1573C458.239 49.3047 457.416 47.3009 455.627 45.6034C453.857 43.9239 451.318 42.7128 447.88 42.0977C447.88 42.0977 447.879 42.0976 447.879 42.0976L457.687 57.8738ZM382.803 57.5974L436.86 42.7032L387.22 196.861C383.19 189.964 382.884 183.322 384.212 176.96C385.274 171.868 387.427 166.823 389.476 162.018C389.919 160.98 390.357 159.954 390.778 158.94L390.778 158.94L398.556 140.23C407.436 118.867 416.317 97.5033 425.198 76.1403L390.57 85.6204L390.57 85.6204C382.261 87.8947 373.794 82.503 372.356 74.0057C371.11 66.6647 375.626 59.5746 382.803 57.5974Z" fill="#E90C61" stroke="white" stroke-width="5"/>
<path d="M307.299 98.0503C303.945 102.444 302.292 107.912 302.814 113.411C303.236 117.899 304.604 122.633 308.41 123.253C315.875 124.468 319.692 121.517 321.256 116.658C322.819 111.798 332.016 95.3081 346.425 96.0025C360.835 96.697 363.264 107.285 362.743 114.401C362.222 121.517 356.959 121.948 352.789 123.527C348.628 125.105 309.108 131.932 297.65 167.167C294.532 180.532 293.738 194.758 298.597 200.486C303.456 206.214 317.777 221.878 372.716 209.554C384.981 205.389 376.973 189.977 360.194 189.052C334.006 197.535 315.539 195.582 315.195 184.994C314.841 174.406 319.249 152.645 362.802 140.611V201.344C362.802 206.581 367.572 210.527 372.716 209.554L376.995 208.745C380.998 207.988 383.87 204.461 383.801 200.392L382.178 105.202C382.178 105.202 379.06 77.8929 351.166 75.5786C334.986 74.4937 317.282 84.9383 307.299 98.0503Z" fill="#1F2636"/>
<path d="M373.525 209.234C378.724 208.252 382.456 203.67 382.367 198.383V198.382L380.744 103.192L380.742 103.071L380.728 102.951L378.244 103.235C380.728 102.951 380.728 102.95 380.728 102.948L380.727 102.945L380.726 102.936L380.723 102.911C380.721 102.892 380.718 102.865 380.713 102.833C380.705 102.767 380.692 102.676 380.675 102.562C380.641 102.332 380.589 102.007 380.513 101.599C380.362 100.784 380.115 99.635 379.728 98.2563C378.957 95.506 377.618 91.8016 375.343 88.0053C370.75 80.3441 362.344 72.3564 347.439 71.1198L347.419 71.1181L347.399 71.1168C330.154 69.9605 311.713 80.9925 301.377 94.566C297.659 99.4371 295.807 105.525 296.39 111.678L373.525 209.234ZM373.525 209.234L369.28 210.037M373.525 209.234L369.28 210.037M369.28 210.037C358.648 212.348 345.743 214.965 333.011 214.745C320.235 214.523 307.376 211.442 297.073 202.115L296.951 202.004L296.845 201.879C293.979 198.501 291.843 192.541 290.775 185.997C289.691 179.36 289.634 171.69 291.281 164.632L291.305 164.528L291.338 164.427C302.1 131.335 336.738 122.217 345.935 119.796C346.934 119.533 347.633 119.349 347.968 119.222L347.97 119.221C348.656 118.962 349.459 118.702 350.186 118.466C350.586 118.337 350.963 118.214 351.284 118.104C352.316 117.75 353.165 117.399 353.87 116.956C354.549 116.53 355.076 116.029 355.469 115.365C355.868 114.693 356.208 113.722 356.315 112.251C356.554 108.993 356.088 105.181 354.15 102.184C352.305 99.3324 348.891 96.8465 342.371 96.5323C336.214 96.2356 330.977 99.5978 326.924 103.978C322.868 108.362 320.368 113.384 319.701 115.456C318.781 118.316 317.11 120.857 314.355 122.435C311.623 124 308.173 124.421 304.074 123.754L304.074 123.754C301.064 123.263 299.222 121.131 298.153 118.893C297.098 116.684 296.613 114.041 296.39 111.679L369.28 210.037ZM356.368 186.993V141.963C336.944 147.767 326.669 155.082 321.247 161.915C315.654 168.964 314.987 175.8 315.133 180.739C316.054 185.909 318.25 188.559 320.924 189.97C323.796 191.485 327.651 191.808 332.212 191.376C336.4 190.979 340.835 189.988 345.177 189.019C345.535 188.939 345.893 188.859 346.249 188.78C349.749 188.001 353.282 187.239 356.368 186.993Z" fill="#E90C61" stroke="white" stroke-width="5"/>
<path d="M217.596 110.9L225.179 237.098C225.464 241.919 229.458 245.68 234.287 245.68C239.362 245.68 243.464 241.534 243.414 236.456L242.352 134.362C242.352 134.362 244.841 115.443 267.581 114.227C278.164 115.443 280.072 134.189 281.813 136.271C283.544 138.354 293.96 141.999 296.911 131.064C299.862 120.128 294.659 96.6968 271.574 93.7461C248.49 90.7954 239.116 109.541 238.595 113.186C237.808 108.478 231.258 95.5893 220.812 103.72C218.619 105.428 217.428 108.127 217.596 110.9Z" fill="#1F2636"/>
<path d="M231.083 99.8302C232.602 101.225 233.848 102.938 234.813 104.661C236.231 102.318 238.273 99.642 241.016 97.1687C246.786 91.9658 255.61 87.7206 267.958 89.2989C280.435 90.8937 288.168 98.089 292.306 106.32C296.378 114.421 297.039 123.642 295.391 129.748C294.546 132.881 293.1 135.193 291.203 136.749C289.307 138.304 287.145 138.954 285.124 139.077C283.126 139.2 281.223 138.814 279.694 138.254C278.263 137.73 276.807 136.921 275.962 135.907C275.63 135.511 275.409 135.066 275.265 134.743C275.108 134.388 274.964 133.996 274.832 133.603C274.573 132.829 274.299 131.869 274.013 130.863L274.005 130.836C273.413 128.754 272.711 126.293 271.755 123.876C270.793 121.446 269.632 119.216 268.2 117.559C266.844 115.99 265.333 115.027 263.557 114.769C253.138 115.386 247.572 119.964 244.544 124.23C242.989 126.421 242.068 128.585 241.538 130.199C241.274 131.003 241.11 131.663 241.014 132.108C240.969 132.313 240.939 132.472 240.921 132.578L241.981 234.463L241.981 234.464C242.043 240.931 236.821 246.213 230.353 246.213C224.203 246.213 219.114 241.422 218.75 235.281C218.75 235.28 218.75 235.279 218.75 235.279L211.167 109.083C211.167 109.083 211.167 109.082 211.167 109.082C210.951 105.506 212.485 102.005 215.343 99.7804L215.343 99.7803C218.315 97.4669 221.271 96.457 224.118 96.6451C226.938 96.8315 229.275 98.1693 231.083 99.8302Z" fill="#E90C61" stroke="white" stroke-width="5"/>
<path d="M143.484 194.417C147.083 198.067 152.729 198.734 157.254 196.328C168.398 190.406 191.63 174.952 190.744 149.404C189.899 124.936 186.84 105.881 170.709 92.0599C154.923 78.5338 133.53 77.4981 114.449 84.1077C94.9246 90.8708 78.0758 104.164 64.9451 120.117C35.5264 155.854 21.9136 203.1 14.0549 247.905C8.45832 279.841 6.45186 314.698 16.9466 345.888C29.7823 384.057 48.4793 436.667 105.65 425.232C110.475 424.267 116.78 420.65 120.016 416.875C125.386 410.613 125.996 402.403 126.832 394.576C127.815 385.31 129.182 376.06 130.746 366.871C132.379 357.257 134.297 347.692 136.51 338.195C137.651 333.284 138.871 328.39 140.169 323.519C141.054 320.207 144.546 313.343 143.966 310.068C148.588 336.251 142.834 363.595 148.687 389.529C150.624 398.122 153.949 406.631 159.909 413.119C166.637 420.444 176.601 424.704 186.545 424.476C196.489 424.249 206.246 419.527 212.57 411.848C218.826 404.247 221.55 394.363 223.242 384.662C226.527 365.75 226.497 346.439 226.458 327.244C226.438 320.591 226.429 313.938 226.409 307.285C226.409 304.451 226.34 301.418 224.717 299.097C221.275 294.183 212.904 295.983 209.501 300.922C206.098 305.862 206.197 312.32 206.354 318.316C206.875 338.281 206.737 358.264 205.941 378.22C205.636 385.873 204.898 394.291 199.439 399.658C193.695 405.305 183.358 405.27 177.643 399.584C171.87 393.829 171.525 384.742 171.535 376.586C171.604 346.759 171.673 316.932 171.742 287.105C171.761 280.817 171.742 274.36 169.48 268.493C167.217 262.626 162.172 257.395 155.906 256.818C151.057 256.37 146.287 258.781 142.815 262.209C139.353 265.637 137.002 270.005 134.799 274.353C121.088 301.421 111.252 330.609 107.505 360.723C105.714 375.157 101.947 395.612 82.9151 394.777C74.5843 394.412 67.2369 389.11 61.6207 382.95C41.3099 360.689 35.3099 325.683 34.3657 296.559C33.3034 263.926 40.2376 231.409 52.7094 201.333C62.4665 177.813 75.5186 155.655 91.2362 135.614C99.39 125.223 109.501 115.806 121.992 111.515C131.032 108.409 141.084 108.438 149.828 112.483C167.129 120.483 171.565 138.013 168.644 155.537C168.299 157.62 154.932 176.539 147.123 180.358C147.123 180.358 140.877 185.391 141.221 189.442C141.221 189.442 140.789 191.689 143.484 194.417Z" fill="#1F2636"/>
<path d="M118.059 109.548C127.098 106.442 137.15 106.471 145.894 110.515C163.195 118.516 167.631 136.045 164.71 153.57C164.365 155.653 150.999 174.572 143.189 178.391M118.059 109.548L118.871 111.912C127.387 108.986 136.764 109.047 144.844 112.785L144.845 112.785C160.659 120.098 165.044 136.119 162.268 153.012M118.059 109.548C105.567 113.839 95.4562 123.256 87.3023 133.646L152.202 252.361C146.387 251.824 140.93 254.706 137.125 258.462L137.122 258.465C133.339 262.211 130.832 266.921 128.635 271.255L128.635 271.256C114.817 298.535 104.879 328 101.09 358.446L101.09 358.447C100.193 365.679 98.8374 373.985 95.5239 380.354C93.8866 383.502 91.8288 386.058 89.2201 387.787C86.6409 389.495 83.3681 390.5 79.0909 390.312L79.0907 390.312C71.7446 389.99 64.9785 385.269 59.5342 379.299L59.5337 379.298C39.8621 357.737 33.8713 323.527 32.9306 294.511L32.9306 294.51C31.8815 262.283 38.729 230.12 51.0847 200.324M118.059 109.548L118.871 111.912C107.035 115.978 97.2897 124.969 89.2691 135.19C73.6884 155.057 60.7527 177.018 51.0847 200.324M162.268 153.012C162.325 152.882 162.278 152.958 162.244 153.154M162.268 153.012C162.26 153.06 162.252 153.107 162.244 153.154M162.268 153.012C162.259 153.033 162.247 153.059 162.232 153.091C162.153 153.261 162.024 153.508 161.836 153.837C161.462 154.492 160.916 155.364 160.223 156.399C158.84 158.464 156.935 161.087 154.794 163.77C152.652 166.457 150.303 169.167 148.035 171.422C145.722 173.721 143.66 175.378 142.091 176.145L141.839 176.268L141.62 176.444L143.189 178.391M162.244 153.154C162.244 153.156 162.244 153.157 162.244 153.159L162.243 153.162C162.244 153.159 162.244 153.157 162.244 153.154ZM143.189 178.391C141.62 176.444 141.62 176.445 141.619 176.445L141.618 176.446L141.616 176.448L141.609 176.453L141.589 176.47C141.573 176.483 141.551 176.501 141.523 176.524C141.497 176.545 141.467 176.571 141.431 176.601C141.392 176.634 141.347 176.672 141.296 176.716C141.105 176.879 140.839 177.112 140.523 177.403C139.896 177.982 139.054 178.808 138.214 179.783C137.383 180.749 136.501 181.923 135.843 183.2C135.233 184.383 134.715 185.844 134.779 187.41M143.189 178.391L134.779 187.41M134.779 187.41C134.768 187.543 134.761 187.702 134.762 187.883C134.765 188.321 134.817 188.889 134.985 189.553C135.326 190.9 136.12 192.535 137.77 194.205C142.203 198.7 149.067 199.453 154.494 196.568C160.195 193.538 169.066 188.034 176.426 179.94C183.805 171.825 189.781 160.968 189.309 147.35C188.462 122.843 185.415 102.772 168.402 88.1941C151.743 73.9207 129.339 72.9741 109.696 79.778C89.6412 86.7251 72.4316 100.341 59.081 116.561C29.2424 152.808 15.5386 200.58 7.65863 245.506L7.65857 245.507C2.04833 277.52 -1.10995 315.283 9.59492 347.098C16.05 366.293 25.7793 388.302 40.7999 404.29C55.9322 420.398 76.4661 430.398 104.095 425.278C104.997 425.11 106.094 424.693 107.17 424.203C108.291 423.691 109.553 423.024 110.829 422.255C113.34 420.743 116.112 418.713 117.98 416.535C123.603 409.977 124.481 401.533 125.241 394.239C125.288 393.779 125.336 393.324 125.384 392.874L125.384 392.873C126.36 383.673 127.719 374.477 129.277 365.323L129.277 365.322C130.902 355.757 132.81 346.242 135.011 336.795L135.011 336.793C136.146 331.909 137.359 327.042 138.65 322.197C138.745 321.843 138.881 321.423 139.052 320.938C139.624 329.082 139.539 337.346 139.453 345.725C139.446 346.449 139.438 347.174 139.431 347.9C139.303 361.228 139.316 374.823 142.314 388.111C144.3 396.919 147.76 405.904 154.135 412.843C161.347 420.696 172.002 425.253 182.668 425.008C193.336 424.764 203.777 419.712 210.566 411.47L210.567 411.469C217.251 403.347 220.062 392.921 221.771 383.124L221.771 383.122C225.1 363.96 225.063 344.43 225.024 325.271V325.269C225.014 321.943 225.007 318.618 225 315.291V315.282C224.992 311.959 224.985 308.634 224.975 305.31C224.975 302.609 224.974 298.76 222.832 295.697L222.831 295.695C220.398 292.222 216.345 291.328 212.781 291.876C209.231 292.422 205.645 294.436 203.509 297.536C199.575 303.246 199.767 310.555 199.92 316.37L199.921 316.414C200.441 336.324 200.303 356.252 199.509 376.153L199.509 376.153C199.198 383.952 198.406 391.333 193.753 395.908C188.987 400.593 180.219 400.565 175.474 395.846C173.054 393.433 171.685 390.243 170.938 386.525C170.186 382.785 170.097 378.699 170.101 374.624L134.779 187.41ZM51.0847 200.324L48.7756 199.366M51.0847 200.324L48.7756 199.366M48.7756 199.366C36.3038 229.442 29.3696 261.959 30.4319 294.592L48.7756 199.366ZM170.205 329.884L170.101 374.621L152.202 252.361C159.739 253.056 165.41 259.225 167.878 265.626C170.337 272.001 170.327 278.933 170.308 285.145L170.205 329.884Z" fill="#E90C61" stroke="white" stroke-width="5"/>
<path d="M466.33 411.4C465.907 411.31 465.424 408.562 465.355 408.224C464.829 405.737 464.76 403.13 465.329 400.643C466.468 395.631 470.387 391.739 474.245 388.607C478.751 384.948 483.446 381.523 488.625 378.859C496.626 374.734 505.956 372.344 514.915 374.322C520.094 375.465 524.867 377.956 529.01 381.242C528.915 381.165 529.26 379.142 529.26 378.901C529.295 377.898 529.226 376.891 529.053 375.9C528.647 373.469 527.629 371.165 526.075 369.249C521.82 364.007 514.889 362.454 508.485 361.906C494.183 360.682 480.408 366.354 470.292 376.362C464.164 382.432 459.589 389.604 459.451 398.461C459.374 403.152 460.358 409.489 465.519 411.184C465.787 411.271 466.063 411.343 466.33 411.4Z" fill="#1F2636"/>
<path d="M476.308 395.452C476.308 395.452 495.805 375.549 520.275 381.235C515.407 377.174 499.146 375.132 485.241 383.876C478.949 387.813 476.308 395.452 476.308 395.452Z" fill="#1F2636"/>
<path d="M467.271 423.477C467.271 423.477 475.6 397.178 498.956 392.405C522.312 387.633 530.028 390.983 537.132 398.802C536.709 394.942 533.74 384.78 514.535 384.103C505.153 383.772 495.78 385.789 487.503 390.213C473.831 397.517 464.225 409.998 467.271 423.477Z" fill="#1F2636"/>
<path d="M546.375 430.991C545.995 430.819 545.357 430.586 544.494 430.327C535.483 427.677 501.916 422.766 482.703 457.886C482.496 458.257 482.289 458.637 482.091 459.017C479.657 453.13 478.034 448.15 478.034 448.15C478.034 448.15 485.647 441.858 482.652 432.312C480.468 425.657 473.105 426.115 472.501 426.115C471.888 426.115 470.421 425.864 471.94 421.445C471.94 421.445 484.231 390.071 525.35 396.363C533.981 398.296 543.225 414.842 546.375 430.991Z" fill="#1F2636"/>
<path d="M491.921 458.59C491.921 458.59 492.629 447.217 512.532 439.5C525.936 434.017 535.482 435.769 536.19 437.52C536.829 439.271 535.992 439.653 534.239 439.576C532.487 439.5 516.33 441.381 507.88 447.193C499.43 453.005 494.407 458.336 494.027 458.59C493.647 458.844 492.094 460.088 491.921 458.59Z" fill="#1F2636"/>
<path d="M563.336 459.727C558.546 443.862 549.932 439.215 523.633 443.581C507.277 446.296 483.929 464.5 486.363 483.792C488.435 500.234 507.587 506.64 525.557 503.695C541.913 501.016 570.137 482.27 563.336 459.727Z" fill="#1F2636"/>
<path d="M544.891 433.549C543.976 432.988 537.313 429.748 524.59 432.493C511.868 435.229 500.147 441.668 496.263 445.802C492.379 449.928 482.704 464.324 482.704 464.324L482.091 459.016C500.648 422.066 535.414 427.423 544.433 430.073C547.109 431.295 546.065 430.356 546.565 431.763C547.48 434.352 545.797 434.11 544.891 433.549Z" fill="#1F2636"/>
<path d="M453.763 434.748C453.763 434.748 459.252 444.293 458.536 452.417C465.544 451.401 478.75 448.406 478.75 438.962C478.75 429.519 471.741 428.453 469.756 429.367C467.78 430.281 457.12 434.19 453.763 434.748Z" fill="#1F2636"/>
<path d="M436.734 436.281C439.66 438.179 446.134 444.387 443.51 461.251C443.613 465.313 453.763 468.865 455.395 459.016C457.017 449.167 455.084 430.566 446.151 429.103C438.927 427.92 436.415 430.814 435.664 433.631C435.396 434.647 435.854 435.708 436.734 436.281Z" fill="#1F2636"/>
<path d="M427.87 439.875C427.87 439.875 436.708 438.656 438.685 443.227C440.67 447.796 439.297 457.288 438.685 459.016C438.08 460.743 427.723 463.941 417.055 466.987C406.396 470.033 260.529 517.302 250.379 519.535C240.22 521.77 218.09 525.831 216.864 505.523C215.647 487.042 243.88 483.061 253.219 480.583C262.558 478.106 427.87 439.875 427.87 439.875Z" fill="#1F2636"/>
<path d="M497.325 494.251C497.307 490.908 497.903 487.567 498.792 484.311C499.733 481.068 500.984 477.869 502.71 474.893C506.102 468.937 511.221 463.724 517.487 460.557C520.603 458.97 523.926 457.827 527.309 457.109C528.164 456.954 529.018 456.834 529.864 456.696C530.296 456.635 530.718 456.552 531.15 456.51L532.427 456.419C533.29 456.365 534.145 456.287 534.991 456.255L537.554 456.288C544.364 456.474 551.002 457.975 557.19 460.453C550.57 459.727 544.028 459.189 537.623 459.681L535.232 459.869L532.868 460.199L531.685 460.366L530.529 460.606C529.76 460.774 528.983 460.921 528.215 461.102C525.177 461.897 522.234 462.972 519.472 464.388C513.914 467.196 509.236 471.526 505.567 476.703C503.729 479.292 502.123 482.093 500.768 485.039C499.37 487.972 498.257 491.054 497.325 494.251Z" fill="#1F2636"/>
<path d="M463.946 408.621C464.288 408.969 464.454 409.477 464.344 409.99C464.169 410.799 463.372 411.314 462.563 411.141C462.562 411.141 462.561 411.141 462.56 411.14L463.946 408.621ZM463.946 408.621C463.876 408.434 463.796 408.155 463.713 407.82C463.577 407.268 463.472 406.718 463.411 406.401C463.395 406.314 463.381 406.245 463.372 406.197L463.369 406.187L463.369 406.187C462.88 403.877 462.825 401.493 463.338 399.252L463.339 399.25C464.357 394.772 467.905 391.156 471.737 388.046L471.738 388.045C476.208 384.414 480.811 381.062 485.858 378.467L485.859 378.466C493.677 374.436 502.64 372.185 511.139 374.06C516.059 375.147 520.629 377.522 524.625 380.691C525.27 381.203 526.208 381.099 526.725 380.457C526.99 380.129 527.093 379.722 527.045 379.333C527.047 379.321 527.048 379.307 527.049 379.291C527.065 379.121 527.095 378.881 527.132 378.61C527.155 378.448 527.174 378.313 527.192 378.181C527.208 378.069 527.224 377.958 527.241 377.836C527.256 377.721 527.271 377.61 527.282 377.517L527.283 377.513C527.289 377.456 527.304 377.334 527.306 377.215C527.344 376.115 527.268 375.009 527.079 373.922C526.631 371.244 525.508 368.7 523.787 366.579L523.787 366.578C519.116 360.823 511.62 359.238 505.16 358.685C490.372 357.42 476.177 363.287 465.784 373.57L465.783 373.57C459.515 379.779 454.645 387.303 454.498 396.71C454.458 399.144 454.688 402.111 455.661 404.741C456.643 407.396 458.446 409.848 461.598 410.883L461.601 410.884L461.601 410.884C461.925 410.989 462.25 411.073 462.557 411.14L463.946 408.621ZM485.172 377.133C479.993 379.797 475.298 383.222 470.792 386.881C466.934 390.013 463.015 393.905 461.876 398.917C461.306 401.404 461.375 404.011 461.902 406.498C461.909 406.53 461.919 406.584 461.933 406.655C461.982 406.913 462.075 407.4 462.193 407.909C462.303 407.953 462.417 407.994 462.532 408.032C462.742 408.1 462.967 408.159 463.194 408.208C463.193 408.208 463.192 408.208 463.192 408.208L485.172 377.133ZM485.172 377.133C493.173 373.008 502.503 370.618 511.462 372.596L485.172 377.133Z" fill="#E90C61" stroke="white" stroke-width="3" stroke-linejoin="round"/>
<path d="M472.855 393.726C472.855 393.726 492.353 373.823 516.822 379.509C511.954 375.448 495.693 373.405 481.789 382.15C475.497 386.087 472.855 393.726 472.855 393.726Z" fill="#E90C61"/>
<path d="M465.249 422.204L465.249 422.205L463.577 427.483L462.356 422.082C459.086 407.615 469.438 394.593 483.344 387.164C491.869 382.607 501.507 380.538 511.136 380.877L511.136 380.877C521.001 381.225 526.939 384.023 530.47 387.458C533.991 390.882 534.935 394.758 535.171 396.913L535.674 401.502L532.569 398.085C529.155 394.326 525.71 391.756 520.375 390.623C514.944 389.469 507.42 389.775 495.804 392.148C484.647 394.428 477.017 401.861 472.133 408.863C469.698 412.355 467.97 415.706 466.853 418.184C466.295 419.421 465.89 420.437 465.627 421.138C465.495 421.489 465.399 421.761 465.337 421.942C465.305 422.033 465.283 422.101 465.268 422.145L465.253 422.193L465.249 422.203L465.249 422.204Z" fill="#E90C61" stroke="white" stroke-width="3"/>
<path d="M546.306 433.549L545.377 428.786C543.75 420.447 540.554 412.003 536.617 405.347C534.648 402.018 532.456 399.072 530.126 396.802C527.818 394.552 525.225 392.82 522.444 392.197L522.36 392.178L522.276 392.165C500.962 388.904 486.884 395.412 478.144 402.922C473.81 406.646 470.834 410.576 468.937 413.58C467.987 415.084 467.304 416.363 466.854 417.279C466.628 417.736 466.461 418.104 466.346 418.364C466.289 418.494 466.246 418.598 466.215 418.672C466.199 418.709 466.187 418.739 466.178 418.762L466.167 418.79L466.163 418.8L466.162 418.804C466.161 418.805 466.16 418.807 468.488 419.719L466.16 418.807L466.141 418.856L466.124 418.906C465.347 421.167 465.024 423.127 465.658 424.664C466.03 425.565 466.681 426.198 467.44 426.549C468.121 426.864 468.751 426.888 469.049 426.888C469.087 426.888 469.135 426.887 469.194 426.886C469.744 426.877 471.18 426.851 472.753 427.367C474.407 427.909 476.039 428.988 476.819 431.35C478.054 435.301 477.115 438.543 475.826 440.875C475.174 442.054 474.439 442.984 473.868 443.616C473.585 443.93 473.347 444.166 473.188 444.315C473.109 444.39 473.05 444.443 473.015 444.474C472.998 444.489 472.987 444.498 472.982 444.502L472.98 444.504C472.98 444.504 472.98 444.504 472.98 444.504C472.98 444.504 472.981 444.503 472.982 444.502L546.306 433.549ZM546.306 433.549L541.889 431.541C541.657 431.435 541.142 431.241 540.33 430.997M546.306 433.549L540.33 430.997M540.33 430.997C536.119 429.76 525.934 427.945 514.55 430.648C503.268 433.328 490.687 440.465 481.444 457.359L481.439 457.369L481.434 457.378C481.235 457.735 481.039 458.094 480.854 458.448L478.374 463.193L476.328 458.245C475.092 455.256 474.063 452.5 473.344 450.493C472.984 449.488 472.701 448.669 472.507 448.099C472.41 447.814 472.335 447.591 472.284 447.438C472.259 447.362 472.239 447.303 472.226 447.262L472.211 447.216L472.207 447.203L472.205 447.2L472.205 447.199L472.205 447.198C472.205 447.198 472.205 447.198 474.582 446.423L540.33 430.997Z" fill="#E90C61" stroke="white" stroke-width="5"/>
<path d="M485.96 456.93L485.985 457.15C486.075 457.927 486.442 459.124 487.678 459.757C488.769 460.315 489.815 460.035 490.249 459.888C491.116 459.593 492.029 458.899 491.964 458.942C492.159 458.812 492.332 458.654 492.377 458.612C492.38 458.61 492.382 458.607 492.384 458.606C492.466 458.531 492.561 458.441 492.658 458.349C492.685 458.323 492.779 458.233 492.895 458.121C493.079 457.945 493.319 457.714 493.437 457.602C494.079 456.989 494.983 456.14 496.133 455.12C498.434 453.081 501.722 450.362 505.845 447.526C509.659 444.902 515.421 443.061 520.664 441.89C523.245 441.313 525.623 440.916 527.453 440.668C528.369 440.544 529.138 440.458 529.719 440.407C530.01 440.381 530.245 440.364 530.422 440.355C530.583 440.347 530.66 440.347 530.677 440.347C530.68 440.347 530.681 440.347 530.679 440.347M485.96 456.93L530.679 440.347M485.96 456.93L485.974 456.709M485.96 456.93L485.974 456.709M530.679 440.347C531.192 440.369 531.769 440.366 532.331 440.273C532.874 440.183 533.639 439.971 534.305 439.389C535.935 437.964 535.455 435.946 535.087 434.937L535.072 434.897L535.056 434.857C534.655 433.866 533.847 433.291 533.317 432.985C532.715 432.638 532.012 432.377 531.279 432.179C529.802 431.781 527.889 431.555 525.653 431.571C521.164 431.601 515.12 432.604 508.155 435.451M530.679 440.347L508.155 435.451M485.974 456.709L488.469 456.864M485.974 456.709L488.469 456.864M488.469 456.864C485.974 456.709 485.974 456.706 485.974 456.704L485.974 456.7L485.975 456.69L485.976 456.667C485.978 456.65 485.979 456.63 485.981 456.608C485.985 456.563 485.991 456.508 485.999 456.441C486.014 456.309 486.039 456.134 486.077 455.921C486.153 455.494 486.284 454.913 486.508 454.209C486.956 452.798 487.775 450.905 489.262 448.779C492.25 444.51 497.825 439.46 508.155 435.451M488.469 456.864L508.155 435.451" fill="#E90C61" stroke="white" stroke-width="5"/>
<path d="M562.277 457.278L562.277 457.278C559.785 449.026 556.103 443.064 549.086 440.045C542.33 437.137 532.966 437.198 519.771 439.389C511.005 440.844 500.635 446.359 492.765 453.944C484.918 461.505 479.073 471.614 480.431 482.378L562.277 457.278ZM562.277 457.278C566.067 469.841 559.982 481.092 551.401 489.246C542.821 497.397 531.228 503.008 522.51 504.436M562.277 457.278L522.105 501.968M522.51 504.436L522.105 501.968M522.51 504.436L522.105 501.968M522.51 504.436C513.144 505.97 503.348 505.097 495.519 501.566C487.629 498.009 481.6 491.658 480.431 482.379L522.105 501.968" fill="#E90C61" stroke="white" stroke-width="5"/>
<path d="M541.439 431.823C540.524 431.262 533.861 428.022 521.138 430.767C508.416 433.503 496.695 439.942 492.811 444.076C488.927 448.202 479.251 462.598 479.251 462.598L478.639 457.29C497.196 420.339 531.962 425.697 540.981 428.347C543.657 429.569 542.613 428.63 543.113 430.037C544.028 432.626 542.345 432.384 541.439 431.823Z" fill="#E90C61"/>
<path d="M448.143 434.268L448.143 434.268L448.143 434.268L448.143 434.267L448.142 434.267L446.348 431.147L449.9 430.556C451.327 430.319 454.618 429.284 458.002 428.104C461.343 426.94 464.392 425.77 465.255 425.372L465.259 425.37C466.319 424.881 467.642 424.791 468.862 424.946C470.148 425.11 471.583 425.575 472.931 426.474C475.745 428.348 477.798 431.829 477.798 437.236C477.798 443.384 473.426 447.15 468.923 449.367C464.385 451.601 459.016 452.647 455.442 453.165L452.316 453.618L452.593 450.471C452.902 446.971 451.865 442.977 450.627 439.692C450.02 438.083 449.391 436.712 448.915 435.745C448.677 435.263 448.479 434.885 448.343 434.631C448.274 434.504 448.222 434.409 448.188 434.347C448.171 434.317 448.158 434.295 448.151 434.281L448.143 434.268Z" fill="#E90C61" stroke="white" stroke-width="5"/>
<path d="M431.922 436.652L431.918 436.65C430.212 435.54 429.229 433.415 429.794 431.268L429.796 431.26C430.299 429.375 431.447 427.307 433.788 425.97C436.081 424.661 439.155 424.263 443.102 424.909L443.103 424.909C446.233 425.422 448.56 427.423 450.216 429.889C451.86 432.339 452.979 435.431 453.715 438.627C455.187 445.017 455.272 452.458 454.409 457.697L454.409 457.699C453.929 460.598 452.763 462.823 451.015 464.284C449.267 465.745 447.185 466.234 445.278 466.12C443.402 466.008 441.601 465.312 440.22 464.268C438.887 463.259 437.611 461.644 437.558 459.589L437.553 459.363L437.587 459.141C438.844 451.065 437.887 445.786 436.45 442.405C435.018 439.036 433.034 437.374 431.922 436.652Z" fill="#E90C61" stroke="white" stroke-width="5"/>
<path d="M424.418 438.149L423.854 435.713L423.964 435.688L424.076 435.672L424.418 438.149ZM424.418 438.149C424.076 435.672 424.077 435.672 424.078 435.672L424.079 435.672L424.083 435.671L424.093 435.67L424.123 435.666C424.147 435.663 424.18 435.659 424.22 435.654C424.301 435.644 424.414 435.632 424.554 435.618C424.835 435.59 425.229 435.557 425.705 435.533C426.649 435.486 427.955 435.474 429.354 435.625C430.734 435.775 432.33 436.097 433.786 436.793C435.264 437.498 436.726 438.657 437.527 440.508M424.418 438.149C423.854 435.713 423.854 435.713 423.852 435.714L423.847 435.715L423.824 435.72L423.734 435.741L423.38 435.823L421.995 436.143L416.732 437.361C412.194 438.411 405.7 439.914 397.878 441.726C382.233 445.349 361.277 450.205 340.029 455.139C297.573 464.997 253.845 475.189 249.126 476.44L249.125 476.44C248.137 476.703 246.865 476.994 245.393 477.332C240.38 478.481 233.039 480.165 226.609 483.044C218.307 486.761 210.203 493.06 210.917 503.954C211.253 509.507 213.048 513.672 215.957 516.623C218.837 519.544 222.575 521.037 226.379 521.717C233.886 523.06 242.415 521.361 247.464 520.251L247.464 520.251C250.141 519.662 261.316 516.237 276.502 511.47C291.777 506.675 311.3 500.46 330.834 494.221C340.664 491.082 350.49 487.939 359.777 484.968C387.447 476.117 410.334 468.795 414.289 467.665C414.289 467.665 414.29 467.665 414.29 467.665L413.603 465.261L437.527 440.508M437.527 440.508C438.77 443.373 438.876 447.405 438.703 450.596C438.613 452.262 438.437 453.834 438.242 455.113C438.056 456.327 437.828 457.448 437.59 458.122L437.527 440.508Z" fill="#E90C61" stroke="white" stroke-width="5"/>
<path d="M493.872 493.172C493.855 489.829 494.451 486.488 495.34 483.232C496.281 479.989 497.532 476.79 499.258 473.814C502.65 467.858 507.769 462.645 514.035 459.478C517.151 457.891 520.473 456.748 523.857 456.03C524.711 455.875 525.566 455.755 526.412 455.617C526.843 455.556 527.266 455.473 527.698 455.431L528.975 455.34C529.838 455.286 530.693 455.208 531.539 455.176L534.102 455.209C540.912 455.395 547.549 456.896 553.738 459.374C547.118 458.648 540.575 458.11 534.171 458.602L531.78 458.79L529.415 459.12L528.233 459.287L527.076 459.527C526.308 459.695 525.531 459.842 524.763 460.023C521.725 460.818 518.782 461.893 516.02 463.309C510.461 466.117 505.783 470.447 502.115 475.624C500.277 478.213 498.671 481.014 497.316 483.96C495.918 486.893 494.805 489.975 493.872 493.172Z" fill="#E90C61"/>
</svg>
