<svg width="858" height="764" viewBox="0 0 858 764" fill="none" xmlns="http://www.w3.org/2000/svg">
<path d="M618.844 484.969C623.471 489.789 629.057 493.685 635.297 496.329C636.524 497.038 637.791 497.698 639.097 498.301C631.897 502.35 625.138 507.426 619.004 513.491C618.951 513.543 618.897 513.597 618.844 513.649V484.969ZM675.631 437.413C675.631 444.059 670.817 449.594 664.497 450.741C664.497 450.734 664.497 450.729 664.497 450.722V405.047C664.497 398.247 669.271 392.551 675.631 391.101V437.413ZM841.484 305.763C837.724 303.189 833.137 301.753 827.911 301.753C820.737 301.753 814.017 305.134 808.977 311.273C804.324 316.946 801.751 324.285 801.751 331.937V362.813C801.324 362.051 800.884 361.289 800.444 360.526C797.617 355.541 794.777 350.553 791.977 345.547C791.591 344.855 791.204 344.135 790.818 343.402C787.471 337.202 782.431 327.833 772.111 323.883C771.991 323.835 771.871 323.805 771.738 323.758C770.231 322.778 768.591 321.91 766.777 321.217C763.377 319.915 759.831 319.255 756.231 319.255C737.177 319.255 722.617 336.794 721.124 353.449C716.444 348.173 710.618 343.941 704.018 341.165C703.698 340.975 703.364 340.781 703.044 340.599C704.831 336.394 705.644 332.159 705.497 328.965C705.217 322.013 700.431 312.525 688.991 308.186C684.297 305.19 677.991 303.181 669.764 303.181C666.391 303.181 662.751 303.519 658.911 304.186C614.151 311.97 579.697 318.354 547.204 324.881C515.817 331.187 490.497 336.797 467.524 342.531C464.111 343.383 460.684 344.221 457.257 345.061C426.497 352.577 394.711 360.347 367.338 379.402C350.671 391.014 337.311 404.955 328.017 420.054C327.857 415.607 327.097 409.715 323.351 404.361C320.617 400.455 316.777 397.619 312.324 396.075C308.511 393.485 303.884 392.071 298.897 392.071C289.777 392.071 280.591 396.854 275.497 404.254C268.324 414.674 268.631 426.853 268.871 435.746C269.564 462.395 269.377 489.421 268.311 516.07C268.004 523.791 267.351 532.347 263.484 536.154C262.284 537.334 260.271 538.041 258.111 538.041C257.857 538.041 257.604 538.029 257.351 538.009C253.937 533.646 253.658 524.969 253.671 517.083L253.951 395.783C253.978 387.021 254.004 376.114 249.991 365.725C245.937 355.199 238.044 347.123 228.764 343.461C224.551 340.849 219.871 339.197 215.044 338.751C214.124 338.665 213.177 338.622 212.244 338.622C203.217 338.622 193.911 342.719 186.697 349.862C180.591 355.906 176.737 363.013 173.311 369.774C152.871 410.11 139.977 450.977 134.977 491.239C131.417 519.878 124.977 525.746 116.377 525.747C116.084 525.747 115.764 525.739 115.457 525.726C113.737 525.65 112.044 525.27 110.404 524.685C106.831 522.398 103.657 519.403 101.191 516.694C75.524 488.566 68.8174 442.134 67.7107 408.135C66.3907 367.514 74.4307 325.947 91.5774 284.589C104.271 253.994 121.231 225.071 141.977 198.622C153.604 183.806 165.231 174.553 177.511 170.333C181.897 168.825 186.391 168.059 190.844 168.059C195.364 168.059 199.631 168.847 203.577 170.401C219.551 180.183 219.871 198.995 218.204 210.81C214.444 217.257 201.124 233.921 196.057 236.402C195.164 236.838 194.324 237.373 193.551 237.997C189.498 241.257 180.377 249.81 180.564 260.547C180.431 264.166 181.298 270.534 187.484 276.801C190.404 279.767 193.897 281.983 197.711 283.415C202.284 286.355 207.644 287.95 213.284 287.951C218.124 287.951 222.951 286.747 227.244 284.469C243.497 275.823 281.164 251.127 279.711 208.627C278.617 177.266 275.284 144.685 247.897 121.226C242.191 116.331 235.871 112.339 229.084 109.27C216.991 102.661 203.151 99.2047 188.284 99.2047C176.724 99.2047 164.937 101.257 153.244 105.303C126.297 114.639 101.044 132.946 80.2175 158.243C45.2175 200.758 22.404 257.765 8.39068 337.645C-1.39599 393.497 -2.26 440.564 10.5 478.5C31.0867 539.709 59.8707 576.371 91.7774 590.993C103.217 597.306 115.391 600.483 128.257 600.483C137.951 600.483 148.017 598.614 158.177 594.926C167.897 591.398 175.231 586.63 180.618 580.347C190.244 569.129 191.671 555.434 192.831 544.43L192.991 542.853C193.004 542.75 193.017 542.642 193.031 542.539C196.724 554.975 202.124 564.974 209.431 572.93C215.071 579.075 222.071 583.986 229.724 587.371C238.844 592.475 249.244 595.318 259.644 595.318C260.097 595.318 260.537 595.313 260.977 595.303C278.324 594.906 295.257 586.691 306.257 573.33C316.724 560.617 320.871 544.994 323.191 532.323C326.071 538.37 329.697 544.081 334.257 549.115C339.577 554.991 345.831 559.474 352.818 562.483C361.084 567.217 370.591 569.671 380.951 569.671C383.778 569.671 386.711 569.49 389.671 569.135C409.124 566.799 429.591 555.757 443.097 540.317C450.391 531.993 462.337 515.835 460.444 501.171C459.604 494.63 456.124 488.982 450.644 485.266C448.364 483.719 446.044 482.502 443.711 481.582C438.617 478.477 433.364 476.89 428.057 476.89C408.937 476.89 398.777 496.667 395.431 503.166C392.724 508.435 390.138 510.566 384.804 511.933C383.231 512.334 381.804 512.538 380.551 512.538C380.444 512.538 380.364 512.53 380.257 512.527C377.831 509.51 372.191 499.278 374.084 470.75C376.911 448.461 388.977 432.91 404.577 421.773C402.524 428.125 401.484 434.794 401.511 441.77V442.263C401.511 448.502 404.671 454.333 410.151 458.259C411.964 459.558 414.004 460.59 416.164 461.367C420.324 464.127 425.471 465.655 430.791 465.655C442.297 465.654 452.898 458.962 459.871 447.297C460.364 446.47 460.764 445.59 461.071 444.675C468.218 423.234 483.524 410.197 496.484 402.638C496.738 448.869 497.284 543.875 497.284 546.498C497.284 551.889 499.191 557.021 502.644 560.949C504.591 563.149 507.577 565.614 511.964 567.129C515.271 569.386 519.937 571.231 526.391 571.231C526.964 571.231 527.538 571.218 528.138 571.187C543.551 570.417 550.831 556.171 552.711 547.875C552.937 546.914 553.044 545.933 553.044 544.947L553.271 383.103L563.471 381.009C559.658 386.431 559.244 391.635 559.404 394.521V518.89C559.404 529.662 565.124 537.854 573.977 540.851C577.511 543.317 581.884 544.725 586.831 544.771C587.377 544.795 587.924 544.807 588.457 544.807C593.031 544.807 597.017 543.969 600.457 542.598C599.097 547.238 598.377 551.995 598.297 556.897C598.044 572.858 603.937 581.209 609.564 585.541C609.377 589.351 609.644 593.198 610.377 597.047C609.631 597.305 608.884 597.557 608.164 597.798C606.271 596.518 604.391 595.619 602.631 594.999C599.231 592.746 595.897 591.721 593.244 591.285C590.831 590.89 588.497 590.691 586.324 590.691C571.937 590.691 564.391 599.454 562.071 607.758C561.551 607.811 561.177 607.858 561.031 607.878C560.631 607.933 560.231 608.006 559.844 608.097C549.404 610.51 304.097 667.247 289.631 671.083C288.151 671.477 286.177 671.93 283.884 672.455C265.124 676.762 221.177 686.85 223.577 723.297C224.564 739.782 232.458 751.346 245.884 756.822C252.658 760.919 261.284 763.085 271.551 763.085C280.871 763.085 289.977 761.347 296.857 759.834C306.497 757.711 378.257 734.835 471.057 705.15C512.964 691.742 549.164 680.162 555.138 678.455C567.751 674.851 576.471 672.171 582.604 669.785C584.218 670.87 586.004 671.765 587.911 672.429C591.631 674.943 596.244 676.457 601.231 676.457C610.071 676.457 621.297 670.965 623.844 655.49C623.871 655.398 623.871 655.293 623.897 655.199C627.257 654.507 630.311 653.695 633.084 652.789C633.244 653.193 633.404 653.595 633.577 654.007L634.311 660.383C634.831 664.909 637.617 668.777 641.564 670.763C639.764 677.127 639.111 683.778 639.977 690.601C642.097 707.461 653.111 720.727 669.591 727.978C679.551 733.587 692.004 736.743 706.018 736.745C706.018 736.745 706.017 736.745 706.031 736.745C711.071 736.745 716.191 736.326 721.244 735.499C740.991 732.263 769.551 716.677 783.591 694.163C792.297 680.186 794.591 665.11 790.204 650.567C785.204 633.997 776.964 623.405 764.484 618.023C765.351 615.407 765.724 611.869 764.351 607.486C764.311 607.297 764.271 607.098 764.217 606.893C761.791 594.851 756.511 579.367 748.684 566.641C749.951 564.306 750.524 561.598 750.217 558.829C749.324 550.725 745.391 542.238 737.511 535.694C737.657 534.919 737.738 534.137 737.751 533.354C737.791 533.085 737.831 532.795 737.871 532.538C738.018 531.501 738.111 530.817 738.138 529.929C738.204 527.514 738.031 525.083 737.631 522.706C736.617 516.641 734.057 510.949 730.231 506.246C725.684 500.643 720.124 497.005 714.404 494.603C710.364 492.229 706.098 490.626 701.938 489.537C709.258 484.367 715.617 477.901 720.631 470.453C721.777 478.209 726.631 483.993 733.631 486.213C736.884 488.551 740.964 489.889 745.591 489.889C755.204 489.889 766.524 483.789 771.351 476.003C776.857 467.117 776.511 457.411 776.231 449.613C776.177 447.986 776.124 446.45 776.124 445.082L776.271 417.387C785.884 435.13 793.897 449.83 794.857 451.367C796.817 454.466 801.844 462.405 811.351 465.937C815.271 468.467 820.271 470.355 826.577 470.355C826.937 470.355 827.311 470.349 827.684 470.335C842.297 469.811 857.404 459.022 857.404 441.87V331.399C857.404 318.573 851.258 309.114 841.484 305.763Z" fill="white"/>
<path d="M487.95 157.192C487.404 157.381 486.79 157.577 486.31 157.733C485.23 158.081 484.164 158.431 483.137 158.815C482.63 158.975 481.884 159.169 480.924 159.429C475.377 160.923 470.124 162.621 465.11 164.483C468.47 158.737 475.337 150 483.217 150C483.404 150 483.59 150.005 483.777 150.013C484.59 150.053 485.484 150.141 486.39 150.293C487.617 152.032 488.017 154.815 487.95 157.192ZM468.364 256.481C468.284 256.476 468.204 256.472 468.11 256.469C463.164 256.291 459.75 255.915 457.404 255.497C457.337 255.155 457.297 254.716 457.27 254.14C457.07 248.088 456.564 231.688 487.95 217.777V262.748C486.977 262.245 485.95 261.783 484.857 261.372C480.71 258.707 475.297 256.864 468.364 256.481ZM546.217 148.94C546.217 148.509 546.177 148.08 546.137 147.652C545.737 144.12 544.777 139.877 543.177 135.359C543.857 135.223 544.537 135.065 545.217 134.88L565.284 129.387L546.644 174.204L546.217 148.94ZM651.764 179C659.657 183.753 667.764 184.672 672.817 184.672C672.924 184.672 673.03 184.667 673.137 184.667C667.257 194.305 659.71 203.505 650.724 208.432C632.124 218.628 601.67 227.145 582.817 231.643C592.217 209.853 610.43 167.231 624.337 134.653C627.537 162.672 640.204 174.317 651.764 179ZM294.404 326.1C295.044 336.58 301.937 345.279 311.31 348.695C315.364 351.369 320.217 352.932 325.404 352.932C332.324 352.932 338.817 350.224 343.67 345.307C348.537 340.391 351.177 333.873 351.11 326.956L349.684 189.873C350.43 186.668 353.577 178.068 365.777 175.441C366.977 177.951 368.27 181.684 369.684 186.621C370.937 191.065 371.857 194.276 374.257 197.153C376.444 199.78 379.777 201.924 383.577 203.316C387.71 206.048 393.23 207.731 398.644 207.731C403.084 207.731 407.177 206.641 410.75 204.627C406.337 211.284 402.844 218.532 400.284 226.377C400.164 226.736 400.07 227.099 399.99 227.465C395.15 248.141 399.47 274.695 409.617 286.656C410.15 287.279 410.724 287.991 411.35 288.763C415.87 294.388 423.804 304.217 436.697 309.748C443.497 313.657 451.95 316.496 462.417 316.496C466.777 316.496 471.337 315.985 475.95 314.98C476.444 314.873 476.937 314.739 477.417 314.576C486.804 311.387 494.244 304.717 498.177 296.807C500.07 298.181 502.15 299.297 504.404 300.092C508.284 302.657 512.937 304.16 517.924 304.161C519.457 304.161 521.017 304.016 522.524 303.728L528.337 302.631C534.204 301.52 539.23 298.411 542.79 294.093C551.03 298.453 559.417 298.459 563.084 298.459C566.497 298.459 569.83 298.236 573.044 298.021C574.19 297.944 575.337 297.868 576.484 297.803C592.11 296.913 607.777 294.339 623.044 290.153C670.857 277.045 702.71 256.661 717.737 229.568C747.67 175.588 762.51 51.512 762.63 50.312C763.39 42.8133 761.23 35.8519 756.59 30.7119C753.937 27.7826 750.63 25.6453 746.937 24.3426C742.964 21.6679 738.19 20.2146 733.044 20.2146C729.137 20.2146 725.204 21.0426 721.35 22.6746C710.604 27.2386 702.924 37.4986 701.324 49.4506C696.364 86.4306 692.657 113.308 691.51 120.652C689.99 122.951 686.43 127.557 682.177 127.559H682.164C681.404 125.788 680.99 122.585 680.87 116.473C680.857 115.508 680.844 114.58 680.817 113.7C680.617 107.639 680.897 101.156 681.204 94.2933C682.297 69.2307 683.657 38.0399 658.057 17.0799C653.804 13.5879 648.95 10.6479 643.79 8.34528C634.297 3.02794 623.284 -3.05176e-05 612.804 -3.05176e-05C604.524 -3.05176e-05 596.897 1.80535 590.137 5.36935C577.937 11.7974 567.51 27.22 571.03 41.9853C572.87 50.992 577.657 56.2333 583.057 58.8013L524.084 75.0479C513.377 77.9973 505.63 86.4386 503.19 96.6119C498.257 94.8133 492.75 93.564 486.617 93.0547C486.55 93.0493 486.484 93.0439 486.404 93.0399C485.07 92.9493 483.71 92.904 482.35 92.904C458.644 92.904 431.764 107.299 415.43 128.724C413.404 131.385 411.71 134.231 410.364 137.201C405.43 131.66 399.484 127.379 392.684 124.461C386.657 120.984 379.817 118.705 372.31 117.745C369.537 117.391 366.777 117.212 364.097 117.212C346.91 117.212 334.484 124.223 326.137 132.477C325.484 132.177 324.817 131.904 324.137 131.66C320.31 129.16 315.817 127.593 310.71 127.593C304.804 127.593 299.044 129.74 293.617 133.972C287.177 138.98 283.63 146.851 284.124 155.025L294.404 326.1Z" fill="white"/>
<path d="M202.31 270.107C207.19 275.055 214.844 275.959 220.977 272.697C236.084 264.669 267.577 243.72 266.377 209.088C265.23 175.919 261.084 150.088 239.217 131.352C217.817 113.016 188.817 111.612 162.951 120.572C136.484 129.74 113.644 147.76 95.8438 169.387C55.9638 217.831 37.5104 281.877 26.8571 342.616C19.2704 385.908 16.5504 433.16 30.7771 475.441C48.1771 527.183 73.5227 598.5 151.023 583C157.564 581.692 166.11 576.788 170.497 571.671C177.777 563.181 178.604 552.052 179.737 541.443C181.071 528.881 182.924 516.341 185.044 503.885C187.257 490.853 189.857 477.887 192.857 465.012C194.404 458.355 196.057 451.721 197.817 445.117C199.017 440.628 203.75 431.323 202.964 426.884C209.23 462.377 201.43 499.444 209.364 534.6C211.99 546.249 216.497 557.784 224.577 566.579C233.697 576.509 247.204 582.284 260.684 581.975C274.164 581.667 287.39 575.265 295.964 564.856C304.444 554.552 308.137 541.153 310.43 528.003C314.884 502.365 314.844 476.188 314.79 450.167C314.764 441.148 314.75 432.129 314.724 423.111C314.724 419.269 314.63 415.157 312.43 412.011C307.764 405.349 296.417 407.789 291.804 414.485C287.191 421.181 287.324 429.936 287.537 438.064C288.244 465.129 288.057 492.217 286.977 519.271C286.564 529.644 285.564 541.056 278.164 548.332C270.377 555.987 256.364 555.939 248.617 548.231C240.791 540.429 240.324 528.111 240.337 517.055C240.431 476.621 240.524 436.188 240.617 395.755C240.644 387.231 240.617 378.477 237.551 370.524C234.484 362.571 227.644 355.48 219.151 354.697C212.577 354.091 206.111 357.359 201.404 362.005C196.711 366.653 193.524 372.575 190.537 378.468C171.951 415.161 158.617 454.729 153.537 495.551C151.111 515.117 146.004 542.847 120.204 541.715C108.911 541.22 98.9506 534.032 91.3373 525.683C63.8039 495.505 55.6704 448.051 54.3904 408.571C52.9504 364.333 62.3504 320.253 79.2571 279.483C92.4837 247.599 110.177 217.561 131.484 190.393C142.537 176.308 156.244 163.543 173.177 157.725C185.43 153.515 199.057 153.555 210.91 159.037C234.364 169.883 240.377 193.645 236.417 217.401C235.951 220.225 217.83 245.872 207.244 251.049C207.244 251.049 198.777 257.872 199.244 263.363C199.244 263.363 198.657 266.409 202.31 270.107Z" fill="#1F2636"/>
<path d="M302.777 156.891L313.057 327.966C313.444 334.5 318.858 339.599 325.404 339.599C332.284 339.599 337.844 333.979 337.777 327.095L336.338 188.696C336.338 188.696 339.711 163.05 370.538 161.402C384.884 163.05 387.471 188.462 389.831 191.284C392.177 194.108 406.297 199.05 410.297 184.226C414.297 169.402 407.244 137.638 375.951 133.638C344.658 129.638 331.951 155.05 331.244 159.991C330.177 153.608 321.298 136.136 307.138 147.159C304.164 149.474 302.551 153.132 302.777 156.891Z" fill="#1F2636"/>
<path d="M431.377 139.473C426.831 145.429 424.591 152.841 425.297 160.295C425.871 166.379 427.724 172.797 432.884 173.638C443.004 175.285 448.177 171.285 450.297 164.697C452.417 158.109 464.884 135.755 484.417 136.697C503.951 137.638 507.244 151.991 506.537 161.638C505.831 171.285 498.697 171.869 493.044 174.009C487.404 176.147 433.831 185.402 418.297 233.167C414.071 251.285 418.537 272.933 425.124 280.697C431.711 288.462 444.257 308.226 473.124 301.951C489.751 296.305 495.711 273.717 472.964 272.462C455.551 271.834 444.417 268.933 443.951 254.579C443.471 240.226 447.577 213.481 506.617 197.167V279.498C506.617 286.597 513.084 291.946 520.057 290.627L525.857 289.53C531.284 288.505 535.177 283.723 535.084 278.207L532.884 149.167C532.884 149.167 528.657 112.147 490.844 109.01C468.911 107.539 444.911 121.698 431.377 139.473Z" fill="#1F2636"/>
<path d="M606.244 70.3777L532.964 90.5684C524.91 92.787 519.844 100.743 521.244 108.979C522.857 118.518 532.364 124.575 541.697 122.02L595.324 107.339C578.884 146.886 562.444 186.434 546.004 225.982C539.377 241.928 531.07 257.423 540.977 274.378C548.644 287.502 562.417 285.25 575.724 284.491C590.524 283.648 605.23 281.214 619.524 277.295C650.91 268.688 689.644 252.739 706.07 223.103C732.43 175.574 747.964 63.103 749.364 48.9857C750.39 38.7897 741.59 33.503 731.897 37.6164C725.27 40.4257 720.83 46.7604 719.87 53.8884C717.244 73.495 710.044 127.02 709.524 128.044C708.897 129.299 699.804 146.555 683.177 143.103C666.55 139.652 667.804 123.756 667.484 114.135C666.524 84.683 675.91 48.9297 649.617 27.395C637.084 17.1257 616.67 11.9337 601.684 19.8324C594.75 23.487 587.217 33.1057 589.364 41.691C589.604 42.6324 591.257 54.6324 603.724 48.2804C616.19 41.927 634.07 45.4564 639.017 65.2217C642.31 82.1617 642.07 128.044 642.777 134.632C643.484 141.222 646.15 171.339 672.817 171.339C699.484 171.339 704.817 160.986 704.817 160.986C704.817 160.986 691.644 206.79 662.47 222.79C633.297 238.79 576.817 251.024 572.737 251.024C568.657 251.024 559.257 251.966 564.897 239.418C570.55 226.868 630.47 86.319 630.47 86.319C630.47 86.319 636.47 72.6283 619.684 69.6257C615.217 68.8257 610.617 69.1723 606.244 70.3777Z" fill="#1F2636"/>
<path d="M393.444 527.52C402.657 525.157 408.231 520.464 412.617 511.932C418.724 500.064 428.537 486.39 443.164 496.305C454.777 504.18 438.964 524.8 433.071 531.537C422.071 544.108 404.724 553.9 388.084 555.898C337.017 562.034 328.391 502.773 332.137 465.277C335.111 435.481 356.337 409.7 380.297 393.013C408.577 373.322 443.257 366.337 476.084 358.136C502.284 351.594 528.697 345.938 555.164 340.621C592.177 333.185 629.337 326.458 666.537 319.99C688.177 316.225 692.071 326.696 692.177 329.52C692.297 332.342 689.124 342.578 682.217 343.52C675.324 344.461 675.324 344.461 675.324 344.461L539.951 372.225L539.711 544.932C539.711 544.932 536.884 557.401 527.471 557.872C518.071 558.342 515.951 552.696 515.951 549.166C515.951 545.637 515.004 380.461 515.004 380.461C515.004 380.461 464.417 392.461 448.417 440.461C437.591 458.578 420.177 452.461 420.177 444.932C420.177 437.401 418.537 402.578 482.537 379.52C451.004 386.813 369.284 400.146 360.804 469.48C357.991 510.877 368.964 533.777 393.444 527.52Z" fill="#1F2636"/>
<path d="M605.511 381.637V519.362C605.511 519.362 602.071 532.225 587.164 531.441C581.044 531.476 578.071 527.52 578.071 521.558C578.071 515.598 578.071 396.696 578.071 396.696C578.071 396.696 575.911 384.225 605.511 381.637Z" fill="#1F2636"/>
<path d="M694.297 440.081C694.297 454.932 682.257 466.971 667.404 466.971C658.431 466.971 651.164 459.697 651.164 450.724V405.049C651.164 389.78 663.537 377.401 678.817 377.401H679.017C687.457 377.401 694.297 384.241 694.297 392.68V440.081ZM685.71 350.813H685.244C651.257 350.813 623.71 378.361 623.71 412.342V453.402C623.71 473.37 639.897 489.558 659.871 489.558C692.924 489.558 719.71 462.766 719.71 429.716V384.813C719.71 366.036 704.484 350.813 685.71 350.813Z" fill="#1F2636"/>
<path d="M739.004 469.637C739.004 469.637 739.657 358.829 739.657 358.805C739.724 346.016 753.631 331.087 767.351 336.339C773.897 338.844 777.124 346.292 780.337 352.052C783.151 357.088 786.004 362.104 788.857 367.119C795.79 379.304 802.764 391.464 809.737 403.619C812.284 408.055 814.83 412.489 817.39 416.923C818.044 418.057 820.417 420.825 820.417 422.187C820.417 422.18 820.417 334.605 820.417 334.605C820.417 330.183 821.804 325.819 824.617 322.401C826.671 319.9 829.51 317.755 833.244 317.755C842.177 317.755 844.071 325.872 844.071 331.401C844.071 336.925 844.071 441.652 844.071 441.872C844.071 450.809 835.497 456.716 827.204 457.012C819.724 457.28 815.191 452.825 811.471 446.932C809.471 443.755 763.244 358.029 763.244 358.029C763.124 379.788 763.017 401.545 762.91 423.304C762.87 430.541 762.83 437.779 762.79 445.015C762.75 452.831 764.284 462.096 760.017 468.981C756.111 475.287 739.137 481.979 739.004 469.637Z" fill="#1F2636"/>
<path d="M627.59 579.765C626.937 579.625 626.191 575.38 626.084 574.858C625.271 571.017 625.164 566.989 626.044 563.148C627.804 555.405 633.857 549.392 639.817 544.554C646.777 538.901 654.031 533.61 662.031 529.496C674.391 523.124 688.804 519.432 702.644 522.486C710.644 524.253 718.017 528.101 724.417 533.177C724.271 533.057 724.804 529.933 724.804 529.56C724.857 528.01 724.751 526.454 724.484 524.924C723.857 521.169 722.284 517.61 719.884 514.65C713.311 506.552 702.604 504.153 692.711 503.306C670.617 501.416 649.337 510.177 633.711 525.638C624.244 535.014 617.177 546.094 616.964 559.776C616.844 567.024 618.364 576.813 626.337 579.43C626.751 579.565 627.177 579.676 627.59 579.765Z" fill="#1F2636"/>
<path d="M643.004 555.128C643.004 555.128 673.124 524.382 710.924 533.166C703.404 526.892 678.284 523.737 656.804 537.245C647.084 543.328 643.004 555.128 643.004 555.128Z" fill="#1F2636"/>
<path d="M629.044 598.421C629.044 598.421 641.911 557.794 677.991 550.421C714.071 543.049 725.991 548.225 736.964 560.303C736.311 554.341 731.724 538.642 702.057 537.595C687.564 537.085 673.084 540.201 660.298 547.035C639.178 558.318 624.337 577.598 629.044 598.421Z" fill="#1F2636"/>
<path d="M751.244 610.029C750.657 609.762 749.671 609.402 748.337 609.002C734.417 604.909 682.564 597.322 652.884 651.575C652.564 652.149 652.244 652.735 651.937 653.322C648.177 644.229 645.671 636.535 645.671 636.535C645.671 636.535 657.431 626.815 652.804 612.069C649.431 601.789 638.057 602.495 637.124 602.495C636.177 602.495 633.91 602.109 636.257 595.282C636.257 595.282 655.244 546.815 718.764 556.535C732.097 559.522 746.377 585.082 751.244 610.029Z" fill="#1F2636"/>
<path d="M667.124 652.664C667.124 652.664 668.217 635.094 698.964 623.173C719.67 614.702 734.417 617.409 735.51 620.114C736.497 622.82 735.204 623.409 732.497 623.29C729.79 623.173 704.83 626.078 691.777 635.057C678.724 644.036 670.964 652.272 670.377 652.664C669.79 653.056 667.39 654.977 667.124 652.664Z" fill="#1F2636"/>
<path d="M777.444 654.419C770.044 629.911 756.737 622.733 716.111 629.478C690.844 633.671 654.777 661.793 658.537 691.595C661.737 716.994 691.324 726.89 719.084 722.341C744.351 718.202 787.951 689.243 777.444 654.419Z" fill="#1F2636"/>
<path d="M748.951 613.981C747.537 613.114 737.244 608.109 717.591 612.349C697.937 616.575 679.831 626.522 673.831 632.909C667.831 639.282 652.884 661.522 652.884 661.522L651.938 653.322C680.604 596.241 734.311 604.517 748.244 608.61C752.377 610.498 750.764 609.047 751.537 611.221C752.951 615.221 750.351 614.847 748.951 613.981Z" fill="#1F2636"/>
<path d="M608.177 615.833C608.177 615.833 616.657 630.578 615.551 643.127C626.377 641.558 646.777 636.931 646.777 622.342C646.777 607.754 635.951 606.107 632.884 607.519C629.831 608.931 613.364 614.97 608.177 615.833Z" fill="#1F2636"/>
<path d="M581.871 618.201C586.391 621.133 596.391 630.722 592.338 656.774C592.498 663.049 608.178 668.537 610.698 653.322C613.204 638.107 610.218 609.371 596.418 607.111C585.258 605.285 581.378 609.755 580.218 614.106C579.804 615.677 580.511 617.315 581.871 618.201Z" fill="#1F2636"/>
<path d="M568.178 623.753C568.178 623.753 581.831 621.87 584.884 628.93C587.951 635.989 585.831 650.653 584.884 653.321C583.951 655.989 567.951 660.93 551.471 665.635C535.004 670.341 309.671 743.361 293.991 746.811C278.297 750.263 244.111 756.537 242.218 725.165C240.338 696.615 283.951 690.466 298.378 686.638C312.804 682.811 568.178 623.753 568.178 623.753Z" fill="#1F2636"/>
<path d="M675.471 707.753C675.444 702.587 676.364 697.427 677.737 692.397C679.191 687.387 681.124 682.446 683.791 677.847C689.031 668.647 696.937 660.594 706.617 655.702C711.431 653.25 716.564 651.485 721.791 650.375C723.111 650.135 724.431 649.95 725.737 649.738C726.404 649.643 727.057 649.515 727.724 649.45L729.697 649.31C731.031 649.226 732.351 649.106 733.657 649.057L737.617 649.107C748.137 649.394 758.391 651.713 767.951 655.541C757.724 654.419 747.617 653.589 737.724 654.349L734.031 654.639L730.377 655.149L728.551 655.407L726.764 655.778C725.577 656.037 724.377 656.265 723.191 656.543C718.497 657.771 713.951 659.433 709.684 661.621C701.097 665.958 693.871 672.647 688.204 680.645C685.364 684.643 682.884 688.97 680.791 693.522C678.631 698.053 676.911 702.814 675.471 707.753Z" fill="#1F2636"/>
<path d="M196.977 267.44C201.857 272.388 209.511 273.292 215.644 270.03C230.751 262.002 262.244 241.053 261.044 206.421C259.897 173.252 255.751 147.421 233.884 128.685C212.484 110.349 183.484 108.945 157.617 117.905C131.151 127.073 108.311 145.093 90.5106 166.72C50.6306 215.164 32.1772 279.21 21.5239 339.949C13.9372 383.241 9.79603 433.719 24.0227 476C41.4227 527.741 76.0227 593.124 148.297 579.729C151.523 579.131 160.777 574.121 165.164 569.004C172.444 560.514 173.271 549.385 174.404 538.776C175.737 526.214 177.591 513.674 179.711 501.218C181.924 488.186 184.524 475.22 187.524 462.345C189.071 455.688 190.724 449.054 192.484 442.45C193.684 437.961 198.417 428.656 197.631 424.217C203.897 459.71 196.097 496.777 204.031 531.933C206.657 543.582 211.164 555.117 219.244 563.912C228.364 573.842 241.871 579.617 255.351 579.308C268.831 579 282.057 572.598 290.631 562.189C299.111 551.885 302.804 538.486 305.097 525.336C309.551 499.698 309.511 473.521 309.457 447.5C309.431 438.481 309.417 429.462 309.391 420.444C309.391 416.602 309.297 412.49 307.097 409.344C302.431 402.682 291.084 405.122 286.471 411.818C281.857 418.514 281.991 427.269 282.204 435.397C282.911 462.462 282.724 489.55 281.644 516.604C281.231 526.977 280.231 538.389 272.831 545.665C265.044 553.32 251.031 553.272 243.284 545.564C235.457 537.762 234.991 525.444 235.004 514.388C235.097 473.954 235.191 433.521 235.284 393.088C235.311 384.564 235.284 375.81 232.217 367.857C229.151 359.904 222.311 352.813 213.817 352.03C207.244 351.424 200.777 354.692 196.071 359.338C191.377 363.986 188.191 369.908 185.204 375.801C166.617 412.494 153.284 452.062 148.204 492.884C145.777 512.45 140.671 540.18 114.871 539.048C103.577 538.553 93.6174 531.365 86.0041 523.016C58.4707 492.838 50.3372 445.384 49.0572 405.904C47.6172 361.666 57.0172 317.586 73.9239 276.816C87.1505 244.932 104.844 214.894 126.151 187.726C137.204 173.641 150.911 160.876 167.844 155.058C180.097 150.848 193.724 150.888 205.577 156.37C229.031 167.216 235.044 190.978 231.084 214.734C230.617 217.558 212.497 243.205 201.911 248.382C201.911 248.382 193.444 255.205 193.911 260.696C193.911 260.696 193.324 263.742 196.977 267.44Z" fill="#E90C61"/>
<path d="M297.444 154.224L307.724 325.299C308.111 331.833 313.524 336.932 320.071 336.932C326.951 336.932 332.511 331.312 332.444 324.428L331.004 186.029C331.004 186.029 334.377 160.383 365.204 158.735C379.551 160.383 382.137 185.795 384.497 188.617C386.844 191.441 400.964 196.383 404.964 181.559C408.964 166.735 401.911 134.971 370.617 130.971C339.324 126.971 326.617 152.383 325.911 157.324C324.844 150.941 315.964 133.469 301.804 144.492C298.831 146.807 297.217 150.465 297.444 154.224Z" fill="#E90C61"/>
<path d="M426.044 136.806C421.497 142.762 419.257 150.174 419.964 157.628C420.537 163.712 422.391 170.13 427.551 170.971C437.671 172.618 442.844 168.618 444.964 162.03C447.084 155.442 459.551 133.088 479.084 134.03C498.617 134.971 501.911 149.324 501.204 158.971C500.497 168.618 493.364 169.202 487.711 171.342C482.071 173.48 428.497 182.735 412.964 230.5C408.737 248.618 413.204 270.266 419.791 278.03C426.377 285.795 438.924 305.559 467.791 299.284C484.417 293.638 490.377 271.05 467.631 269.795C450.217 269.167 439.084 266.266 438.617 251.912C438.137 237.559 442.244 210.814 501.284 194.5V276.831C501.284 283.93 507.751 289.279 514.724 287.96L520.524 286.863C525.951 285.838 529.844 281.056 529.751 275.54L527.551 146.5C527.551 146.5 523.324 109.48 485.511 106.343C463.577 104.872 439.577 119.031 426.044 136.806Z" fill="#E90C61"/>
<path d="M600.91 67.7112L527.63 87.9019C519.577 90.1205 514.51 98.0765 515.91 106.312C517.523 115.851 527.03 121.908 536.364 119.354L589.99 104.673C573.55 144.219 557.11 183.767 540.67 223.315C534.044 239.262 525.737 254.757 535.643 271.711C543.31 284.835 557.083 282.583 570.39 281.825C585.19 280.982 599.897 278.547 614.19 274.629C645.577 266.022 684.31 250.073 700.737 220.437C727.097 172.907 742.63 60.4365 744.03 46.3192C745.057 36.1232 736.257 30.8365 726.564 34.9498C719.937 37.7592 715.497 44.0939 714.537 51.2219C711.91 70.8285 704.71 124.354 704.19 125.378C703.563 126.633 694.47 143.889 677.843 140.437C661.217 136.986 662.47 121.09 662.15 111.469C661.19 82.0165 670.577 46.2632 644.284 24.7285C631.75 14.4592 611.337 9.2672 596.35 17.1659C589.417 20.8205 581.884 30.4392 584.03 39.0245C584.27 39.9659 585.923 51.9658 598.39 45.6138C610.857 39.2605 628.737 42.7899 633.684 62.5552C636.977 79.4952 636.737 125.378 637.443 131.966C638.15 138.555 640.817 168.673 667.484 168.673C694.15 168.673 699.484 158.319 699.484 158.319C699.484 158.319 686.31 204.123 657.137 220.123C627.964 236.123 571.484 248.358 567.404 248.358C563.324 248.358 553.924 249.299 559.564 236.751C565.217 224.202 625.137 83.6525 625.137 83.6525C625.137 83.6525 631.137 69.9618 614.35 66.9592C609.884 66.1592 605.283 66.5058 600.91 67.7112Z" fill="#E90C61"/>
<path d="M388.11 524.853C397.324 522.49 402.897 517.797 407.284 509.265C413.391 497.397 423.204 483.724 437.831 493.638C449.444 501.513 433.631 522.133 427.737 528.871C416.737 541.441 399.391 551.233 382.751 553.232C331.684 559.368 323.057 500.106 326.804 462.61C329.777 432.814 351.004 407.033 374.964 390.346C403.244 370.656 437.924 363.67 470.751 355.469C496.951 348.928 523.364 343.272 549.831 337.954C586.844 330.518 624.004 323.792 661.204 317.324C682.844 313.558 686.737 324.029 686.844 326.853C686.964 329.676 683.791 339.912 676.884 340.853C669.991 341.794 669.99 341.794 669.99 341.794L534.617 369.558L534.377 542.265C534.377 542.265 531.551 554.734 522.137 555.205C512.737 555.676 510.617 550.029 510.617 546.5C510.617 542.97 509.671 377.794 509.671 377.794C509.671 377.794 459.084 389.794 443.084 437.794C432.257 455.912 414.844 449.794 414.844 442.265C414.844 434.734 413.204 399.912 477.204 376.853C445.671 384.146 363.951 397.48 355.471 466.813C352.657 508.21 363.63 531.11 388.11 524.853Z" fill="#E90C61"/>
<path d="M600.177 378.971V516.696C600.177 516.696 596.737 529.559 581.83 528.775C575.71 528.809 572.737 524.853 572.737 518.892C572.737 512.932 572.737 394.029 572.737 394.029C572.737 394.029 570.577 381.559 600.177 378.971Z" fill="#E90C61"/>
<path d="M688.964 437.415C688.964 452.265 676.924 464.304 662.071 464.304C653.098 464.304 645.831 457.031 645.831 448.057V402.383C645.831 387.113 658.204 374.735 673.484 374.735H673.684C682.124 374.735 688.964 381.575 688.964 390.013V437.415ZM680.377 348.147H679.911C645.924 348.147 618.377 375.695 618.377 409.676V450.736C618.377 470.704 634.564 486.892 654.538 486.892C687.591 486.892 714.377 460.1 714.377 427.049V382.147C714.377 363.369 699.151 348.147 680.377 348.147Z" fill="#E90C61"/>
<path d="M733.67 466.971C733.67 466.971 734.324 356.163 734.324 356.139C734.39 343.349 748.297 328.42 762.017 333.671C768.564 336.177 771.79 343.625 775.004 349.385C777.817 354.421 780.67 359.437 783.524 364.452C790.457 376.637 797.43 388.797 804.404 400.952C806.95 405.388 809.497 409.823 812.057 414.256C812.71 415.391 815.084 418.159 815.084 419.52C815.084 419.513 815.084 331.939 815.084 331.939C815.084 327.516 816.47 323.152 819.284 319.735C821.337 317.233 824.177 315.088 827.91 315.088C836.844 315.088 838.737 323.205 838.737 328.735C838.737 334.259 838.737 438.985 838.737 439.205C838.737 448.143 830.164 454.049 821.87 454.345C814.39 454.613 809.857 450.159 806.137 444.265C804.137 441.088 757.91 355.363 757.91 355.363C757.79 377.121 757.684 398.879 757.577 420.637C757.537 427.875 757.497 435.112 757.457 442.348C757.417 450.164 758.95 459.429 754.684 466.315C750.777 472.62 733.804 479.312 733.67 466.971Z" fill="#E90C61"/>
<path d="M622.257 577.099C621.604 576.959 620.858 572.713 620.751 572.192C619.938 568.351 619.831 564.322 620.711 560.481C622.471 552.738 628.524 546.725 634.484 541.888C641.444 536.235 648.698 530.944 656.698 526.829C669.058 520.457 683.471 516.765 697.311 519.82C705.311 521.587 712.684 525.435 719.084 530.511C718.938 530.391 719.471 527.267 719.471 526.893C719.524 525.344 719.418 523.788 719.151 522.257C718.524 518.503 716.951 514.944 714.551 511.984C707.978 503.885 697.271 501.486 687.377 500.64C665.284 498.749 644.004 507.511 628.377 522.972C618.911 532.348 611.844 543.428 611.631 557.109C611.511 564.357 613.031 574.147 621.004 576.764C621.418 576.899 621.844 577.009 622.257 577.099Z" fill="#E90C61"/>
<path d="M637.67 552.461C637.67 552.461 667.79 521.716 705.59 530.5C698.07 524.225 672.95 521.071 651.47 534.579C641.75 540.661 637.67 552.461 637.67 552.461Z" fill="#E90C61"/>
<path d="M623.711 595.754C623.711 595.754 636.577 555.128 672.657 547.754C708.737 540.382 720.657 545.558 731.631 557.637C730.977 551.674 726.391 535.976 696.724 534.929C682.231 534.418 667.751 537.534 654.964 544.369C633.844 555.652 619.004 574.932 623.711 595.754Z" fill="#E90C61"/>
<path d="M745.911 607.362C745.324 607.095 744.338 606.735 743.004 606.335C729.084 602.242 677.231 594.655 647.551 648.909C647.231 649.482 646.911 650.068 646.604 650.655C642.844 641.562 640.338 633.868 640.338 633.868C640.338 633.868 652.098 624.148 647.471 609.402C644.098 599.122 632.724 599.828 631.791 599.828C630.844 599.828 628.577 599.442 630.924 592.615C630.924 592.615 649.911 544.149 713.431 553.869C726.764 556.855 741.044 582.415 745.911 607.362Z" fill="#E90C61"/>
<path d="M661.791 649.997C661.791 649.997 662.884 632.427 693.631 620.506C714.337 612.035 729.084 614.742 730.177 617.447C731.164 620.153 729.871 620.742 727.164 620.623C724.457 620.506 699.497 623.411 686.444 632.39C673.391 641.369 665.631 649.605 665.044 649.997C664.457 650.389 662.057 652.31 661.791 649.997Z" fill="#E90C61"/>
<path d="M772.11 651.753C764.71 627.245 751.404 620.066 710.777 626.811C685.51 631.005 649.444 659.126 653.204 688.929C656.404 714.327 685.991 724.223 713.751 719.674C739.017 715.535 782.617 686.577 772.11 651.753Z" fill="#E90C61"/>
<path d="M743.617 611.314C742.204 610.447 731.91 605.442 712.257 609.682C692.604 613.909 674.497 623.855 668.497 630.242C662.497 636.615 647.551 658.855 647.551 658.855L646.604 650.655C675.271 593.574 728.977 601.85 742.911 605.943C747.044 607.831 745.431 606.381 746.204 608.554C747.617 612.554 745.017 612.181 743.617 611.314Z" fill="#E90C61"/>
<path d="M602.844 613.166C602.844 613.166 611.324 627.911 610.217 640.461C621.044 638.891 641.444 634.265 641.444 619.675C641.444 605.087 630.617 603.441 627.551 604.853C624.497 606.265 608.03 612.303 602.844 613.166Z" fill="#E90C61"/>
<path d="M576.538 615.534C581.058 618.466 591.058 628.056 587.004 654.108C587.164 660.382 602.844 665.87 605.364 650.656C607.871 635.441 604.884 606.705 591.084 604.445C579.924 602.618 576.044 607.089 574.884 611.44C574.471 613.01 575.178 614.649 576.538 615.534Z" fill="#E90C61"/>
<path d="M562.844 621.086C562.844 621.086 576.497 619.203 579.551 626.263C582.617 633.322 580.497 647.986 579.551 650.654C578.617 653.322 562.618 658.263 546.138 662.969C529.671 667.674 304.337 740.694 288.657 744.145C272.964 747.597 238.777 753.87 236.884 722.498C235.004 693.949 278.617 687.799 293.044 683.971C307.471 680.145 562.844 621.086 562.844 621.086Z" fill="#E90C61"/>
<path d="M670.137 705.086C670.111 699.921 671.031 694.761 672.404 689.73C673.857 684.721 675.79 679.779 678.457 675.181C683.697 665.981 691.604 657.927 701.284 653.035C706.097 650.583 711.23 648.818 716.457 647.709C717.777 647.469 719.097 647.283 720.404 647.071C721.071 646.977 721.724 646.849 722.39 646.783L724.364 646.643C725.697 646.559 727.017 646.439 728.324 646.39L732.284 646.441C742.804 646.727 753.057 649.046 762.617 652.874C752.391 651.753 742.284 650.922 732.39 651.682L728.697 651.973L725.044 652.482L723.217 652.741L721.431 653.111C720.244 653.37 719.044 653.598 717.857 653.877C713.164 655.105 708.617 656.766 704.351 658.954C695.764 663.291 688.537 669.981 682.871 677.978C680.031 681.977 677.55 686.303 675.457 690.855C673.297 695.386 671.577 700.147 670.137 705.086Z" fill="#E90C61"/>
</svg>
