<svg width="830" height="572" viewBox="0 0 830 572" fill="none" xmlns="http://www.w3.org/2000/svg">
<path d="M724.422 446.304C724.422 446.304 725.075 335.496 725.075 335.472C725.142 322.682 739.048 307.753 752.768 313.005C759.315 315.51 762.542 322.958 765.755 328.718C768.569 333.754 771.422 338.77 774.275 343.785C781.208 355.97 788.182 368.13 795.155 380.285C797.702 384.721 800.248 389.156 802.808 393.589C803.462 394.724 805.835 397.492 805.835 398.853C805.835 398.846 805.835 311.272 805.835 311.272C805.835 306.849 807.222 302.485 810.035 299.068C812.088 296.566 814.928 294.421 818.662 294.421C827.595 294.421 829.489 302.538 829.489 308.068C829.489 313.592 829.489 418.318 829.489 418.538C829.489 427.476 820.915 433.382 812.622 433.678C805.142 433.946 800.609 429.492 796.889 423.598C794.889 420.421 748.662 334.696 748.662 334.696C748.542 356.454 748.435 378.212 748.328 399.97C748.288 407.208 748.248 414.445 748.208 421.681C748.168 429.497 749.702 438.762 745.435 445.648C741.528 451.953 724.555 458.645 724.422 446.304Z" fill="#1F2636"/>
<path d="M719.089 443.637C719.089 443.637 719.742 332.829 719.742 332.805C719.809 320.016 733.715 305.086 747.435 310.337C753.982 312.844 757.209 320.292 760.422 326.052C763.236 331.088 766.089 336.104 768.942 341.118C775.875 353.304 782.849 365.464 789.822 377.618C792.369 382.054 794.915 386.489 797.475 390.922C798.129 392.057 800.502 394.825 800.502 396.186C800.502 396.18 800.502 308.605 800.502 308.605C800.502 304.182 801.889 299.818 804.702 296.401C806.755 293.9 809.595 291.754 813.329 291.754C822.262 291.754 824.156 299.872 824.156 305.401C824.156 310.925 824.156 415.652 824.156 415.872C824.156 424.809 815.582 430.716 807.289 431.012C799.809 431.28 795.276 426.825 791.556 420.932C789.556 417.754 743.329 332.029 743.329 332.029C743.209 353.788 743.102 375.545 742.995 397.304C742.955 404.541 742.915 411.778 742.875 419.014C742.835 426.83 744.369 436.096 740.102 442.981C736.195 449.286 719.222 455.978 719.089 443.637Z" fill="#E90C61"/>
<path d="M679.716 416.747C679.716 431.598 667.676 443.637 652.823 443.637C643.85 443.637 636.583 436.364 636.583 427.39V381.716C636.583 366.446 648.956 354.068 664.236 354.068H664.436C672.876 354.068 679.716 360.908 679.716 369.346V416.747ZM671.129 327.48H670.663C636.676 327.48 609.129 355.027 609.129 389.009V430.069C609.129 450.037 625.316 466.225 645.29 466.225C678.343 466.225 705.129 439.433 705.129 406.382V361.48C705.129 342.702 689.903 327.48 671.129 327.48Z" fill="#1F2636"/>
<path d="M674.383 414.081C674.383 428.932 662.343 440.97 647.489 440.97C638.516 440.97 631.249 433.697 631.249 424.724V379.049C631.249 363.78 643.623 351.401 658.903 351.401H659.103C667.543 351.401 674.383 358.241 674.383 366.68V414.081ZM665.796 324.813H665.329C631.343 324.813 603.796 352.361 603.796 386.342V427.402C603.796 447.37 619.983 463.558 639.956 463.558C673.009 463.558 699.796 436.766 699.796 403.716V358.813C699.796 340.036 684.569 324.813 665.796 324.813Z" fill="#E90C61"/>
<path d="M590.929 348.303V486.029C590.929 486.029 587.489 498.891 572.582 498.107C566.462 498.142 563.489 494.186 563.489 488.225C563.489 482.265 563.489 363.362 563.489 363.362C563.489 363.362 561.329 350.891 590.929 348.303Z" fill="#1F2636"/>
<path d="M585.595 345.637V483.362C585.595 483.362 582.155 496.225 567.248 495.441C561.128 495.476 558.155 491.52 558.155 485.558C558.155 479.598 558.155 360.696 558.155 360.696C558.155 360.696 555.995 348.225 585.595 345.637Z" fill="#E90C61"/>
<path d="M378.862 496.186C388.076 493.823 393.649 489.13 398.036 480.598C404.143 468.73 413.956 455.057 428.582 464.971C440.196 472.846 424.383 493.466 418.489 500.203C407.489 512.774 390.143 522.566 373.503 524.565C322.436 530.701 313.809 471.439 317.556 433.943C320.529 404.147 341.756 378.366 365.716 361.679C393.996 341.989 428.676 335.003 461.503 326.802C487.703 320.261 514.116 314.605 540.582 309.287C577.596 301.851 762.756 255.125 799.956 248.657C821.596 244.891 825.489 255.362 825.596 258.186C825.716 261.009 823.907 270.559 817 271.5C813.5 271.977 808.742 273.127 808.742 273.127L525.369 340.891L525.129 513.598C525.129 513.598 522.303 526.067 512.889 526.538C503.489 527.009 501.369 521.362 501.369 517.833C501.369 514.303 500.423 349.127 500.423 349.127C500.423 349.127 449.836 361.127 433.836 409.127C423.009 427.245 405.596 421.127 405.596 413.598C405.596 406.067 403.956 371.245 467.956 348.186C436.423 355.479 354.703 368.813 346.223 438.146C343.409 479.543 354.382 502.443 378.862 496.186Z" fill="#1F2636"/>
<path d="M373.528 491.519C382.742 489.157 388.315 484.464 392.702 475.932C398.809 464.064 408.622 450.39 423.249 460.305C434.862 468.18 419.049 488.8 413.155 495.537C402.155 508.108 384.809 517.9 368.169 519.898C317.102 526.034 308.475 466.773 312.222 429.277C315.195 399.481 336.422 373.7 360.382 357.013C388.662 337.322 423.342 330.337 456.169 322.135C482.369 315.594 508.782 309.938 535.249 304.621C572.262 297.185 759.422 250.458 796.622 243.99C818.262 240.225 822.155 250.695 822.262 253.519C822.382 256.342 820.906 266.059 814 267C810.198 268.481 805 269.5 805 269.5L520.035 336.225L519.795 508.932C519.795 508.932 516.969 521.401 507.555 521.872C498.155 522.342 496.035 516.696 496.035 513.166C496.035 509.637 495.089 344.461 495.089 344.461C495.089 344.461 444.502 356.461 428.502 404.461C417.675 422.578 400.262 416.461 400.262 408.932C400.262 401.401 398.622 366.578 462.622 343.519C431.089 350.813 349.369 364.146 340.889 433.48C338.075 474.877 349.048 497.777 373.528 491.519Z" fill="#E90C61"/>
<path d="M591.662 57.0441L518.382 77.2348C510.329 79.4534 505.262 87.4094 506.662 95.6454C508.275 105.184 517.782 111.241 527.115 108.687L580.742 94.0054C564.302 133.552 547.862 173.1 531.422 212.648C524.796 228.595 516.489 244.089 526.395 261.044C534.062 274.168 547.835 271.916 561.142 271.157C575.942 270.315 590.649 267.88 604.942 263.961C636.329 255.355 675.062 239.405 691.489 209.769C717.849 162.24 733.382 49.7694 734.782 35.6521C735.809 25.4561 727.009 20.1694 717.315 24.2827C710.689 27.0921 706.249 33.4267 705.289 40.5547C702.662 60.1614 695.462 113.687 694.942 114.711C694.315 115.965 685.222 133.221 668.595 129.769C651.969 126.319 653.222 110.423 652.902 100.801C651.942 71.3494 661.329 35.596 635.036 14.0614C622.502 3.79205 602.089 -1.39992 587.102 6.49875C580.169 10.1534 572.635 19.7721 574.782 28.3574C575.022 29.2987 576.675 41.2987 589.142 34.9467C601.609 28.5934 619.489 32.1227 624.436 51.8881C627.729 68.8281 627.489 114.711 628.195 121.299C628.902 127.888 631.569 158.005 658.236 158.005C684.902 158.005 690.236 147.652 690.236 147.652C690.236 147.652 677.062 193.456 647.889 209.456C618.716 225.456 562.236 237.691 558.156 237.691C554.076 237.691 544.675 238.632 550.315 226.084C555.969 213.535 615.889 72.9854 615.889 72.9854C615.889 72.9854 621.889 59.2947 605.102 56.292C600.636 55.492 596.035 55.8387 591.662 57.0441Z" fill="#1F2636"/>
<path d="M586.329 54.3775L513.049 74.5682C504.995 76.7869 499.929 84.7428 501.329 92.9788C502.942 102.518 512.449 108.575 521.782 106.02L575.409 91.3389C558.969 130.886 542.529 170.434 526.089 209.982C519.462 225.928 511.155 241.423 521.062 258.378C528.729 271.502 542.502 269.25 555.809 268.491C570.609 267.648 585.315 265.214 599.609 261.295C630.995 252.688 669.729 236.739 686.155 207.103C712.515 159.574 728.049 47.1029 729.449 32.9855C730.475 22.7895 721.675 17.5029 711.982 21.6162C705.355 24.4255 700.915 30.7602 699.955 37.8882C697.329 57.4949 690.129 111.02 689.609 112.044C688.982 113.299 679.889 130.555 663.262 127.103C646.635 123.652 647.889 107.756 647.569 98.1349C646.609 68.6829 655.995 32.9295 629.702 11.3948C617.169 1.12551 596.755 -4.06645 581.769 3.83221C574.835 7.48688 567.302 17.1055 569.449 25.6909C569.689 26.6322 571.342 38.6322 583.809 32.2802C596.275 25.9269 614.155 29.4562 619.102 49.2215C622.395 66.1615 622.155 112.044 622.862 118.632C623.569 125.222 626.235 155.339 652.902 155.339C679.569 155.339 684.902 144.986 684.902 144.986C684.902 144.986 671.729 190.79 642.555 206.79C613.382 222.79 556.902 235.024 552.822 235.024C548.742 235.024 539.342 235.966 544.982 223.418C550.635 210.868 610.555 70.3189 610.555 70.3189C610.555 70.3189 616.555 56.6282 599.769 53.6255C595.302 52.8255 590.702 53.1722 586.329 54.3775Z" fill="#E90C61"/>
<path d="M409.796 126.139C405.249 132.095 403.009 139.507 403.716 146.962C404.289 153.046 406.142 159.463 411.302 160.304C421.422 161.951 426.596 157.951 428.716 151.363C430.836 144.775 443.302 122.422 462.836 123.363C482.369 124.304 485.662 138.658 484.956 148.304C484.249 157.951 477.116 158.535 471.462 160.675C465.822 162.814 412.249 172.068 396.716 219.834C392.489 237.951 391.413 257.236 398 265C404.586 272.765 424 294 498.475 277.294C515.102 271.647 504.246 250.755 481.5 249.5C446 261 420.966 258.353 420.5 244C420.02 229.647 425.996 200.147 485.036 183.833V266.164C485.036 273.263 491.502 278.612 498.475 277.294L504.275 276.196C509.702 275.171 513.596 270.389 513.502 264.873L511.302 135.834C511.302 135.834 507.076 98.8135 469.262 95.6762C447.329 94.2055 423.329 108.364 409.796 126.139Z" fill="#1F2636"/>
<path d="M404.462 123.472C399.916 129.428 397.676 136.84 398.382 144.295C398.956 150.379 400.809 156.796 405.969 157.637C416.089 159.284 421.262 155.284 423.382 148.696C425.502 142.108 437.969 119.755 457.502 120.696C477.036 121.637 480.329 135.991 479.622 145.637C478.916 155.284 471.782 155.868 466.129 158.008C460.489 160.147 406.916 169.401 391.382 217.167C387.156 235.284 391.622 256.932 398.209 264.696C424.5 288.5 464.275 280.901 493.142 274.627C509.769 268.98 502.449 251.255 479.702 250C462.289 249.372 422.5 270.5 417.036 238.579C416.556 224.225 420.662 197.48 479.702 181.167V263.497C479.702 270.596 486.169 275.945 493.142 274.627L498.942 273.529C504.369 272.504 508.262 267.723 508.169 262.207L505.969 133.167C505.969 133.167 501.742 96.1465 463.929 93.0092C441.996 91.5385 417.996 105.697 404.462 123.472Z" fill="#E90C61"/>
<path d="M288.195 143.557L298.475 314.632C298.862 321.167 304.276 326.265 310.822 326.265C317.702 326.265 323.262 320.645 323.195 313.761L321.756 175.363C321.756 175.363 325.129 149.716 355.956 148.068C370.302 149.716 372.889 175.128 375.249 177.951C377.595 180.775 391.715 185.716 395.715 170.892C399.715 156.068 392.662 124.304 361.369 120.304C330.075 116.304 317.369 141.716 316.662 146.657C315.595 140.275 306.716 122.803 292.556 133.825C289.582 136.14 287.969 139.799 288.195 143.557Z" fill="#1F2636"/>
<path d="M282.862 140.89L293.142 311.965C293.528 318.5 298.942 323.598 305.489 323.598C312.369 323.598 317.929 317.978 317.862 311.094L316.422 172.696C316.422 172.696 319.795 147.049 350.622 145.401C364.969 147.049 367.555 172.461 369.915 175.284C372.262 178.108 386.382 183.049 390.382 168.225C394.382 153.401 387.329 121.637 356.035 117.637C324.742 113.637 312.035 139.049 311.329 143.99C310.262 137.608 301.382 120.136 287.222 131.158C284.249 133.473 282.635 137.132 282.862 140.89Z" fill="#E90C61"/>
<path d="M187.728 256.773C192.608 261.721 200.262 262.625 206.395 259.364C221.502 251.336 252.995 230.386 251.795 195.754C250.648 162.585 246.502 136.754 224.635 118.018C203.235 99.6823 174.235 98.2783 148.368 107.238C121.902 116.406 99.0617 134.426 81.2617 156.053C41.3817 204.497 22.9284 268.544 12.275 329.282C4.68836 372.574 1.96841 419.826 16.1951 462.108C33.5951 513.849 58.9407 585.166 136.441 569.666C142.982 568.358 151.528 563.454 155.915 558.337C163.195 549.848 164.022 538.718 165.155 528.109C166.489 515.548 168.342 503.008 170.462 490.552C172.675 477.52 175.275 464.553 178.275 451.678C179.822 445.021 181.475 438.388 183.235 431.784C184.435 427.294 189.168 417.989 188.382 413.55C194.648 449.044 186.848 486.11 194.782 521.266C197.408 532.916 201.915 544.45 209.995 553.245C219.115 563.176 232.622 568.95 246.102 568.641C259.582 568.333 272.808 561.932 281.382 551.522C289.862 541.218 293.555 527.82 295.848 514.669C300.302 489.032 300.262 462.854 300.208 436.833C300.182 427.814 300.168 418.796 300.142 409.777C300.142 405.936 300.048 401.824 297.848 398.677C293.182 392.016 281.835 394.456 277.222 401.152C272.609 407.848 272.742 416.602 272.955 424.73C273.662 451.796 273.475 478.884 272.395 505.937C271.982 516.31 270.982 527.722 263.582 534.998C255.795 542.653 241.782 542.605 234.035 534.897C226.208 527.096 225.742 514.777 225.755 503.721C225.849 463.288 225.942 422.854 226.035 382.421C226.062 373.897 226.035 365.144 222.968 357.19C219.902 349.237 213.062 342.146 204.568 341.364C197.995 340.757 191.529 344.025 186.822 348.672C182.129 353.32 178.942 359.241 175.955 365.134C157.369 401.828 144.035 441.396 138.955 482.217C136.529 501.784 131.422 529.513 105.622 528.381C94.3286 527.886 84.3686 520.698 76.7552 512.349C49.2219 482.172 41.0884 434.717 39.8084 395.237C38.3684 351 47.7684 306.92 64.675 266.149C77.9017 234.265 95.5952 204.228 116.902 177.06C127.955 162.974 141.662 150.209 158.595 144.392C170.848 140.181 184.475 140.221 196.328 145.704C219.782 156.549 225.795 180.312 221.835 204.068C221.368 206.892 203.248 232.538 192.662 237.716C192.662 237.716 184.195 244.538 184.662 250.029C184.662 250.029 184.075 253.076 187.728 256.773Z" fill="#1F2636"/>
<path d="M182.395 254.106C187.275 259.054 194.929 259.958 201.062 256.697C216.169 248.669 247.662 227.719 246.462 193.087C245.315 159.918 241.169 134.087 219.302 115.351C197.902 97.0153 168.902 95.6113 143.036 104.571C116.569 113.739 93.7288 131.759 75.9288 153.386C36.0488 201.83 17.5954 265.877 6.94208 326.615C-0.64459 369.907 -4.78575 420.385 9.44091 462.666C26.8409 514.408 61.4409 579.79 133.715 566.395C136.941 565.797 146.196 560.787 150.582 555.67C157.862 547.181 158.689 536.051 159.822 525.442C161.156 512.881 163.009 500.341 165.129 487.885C167.342 474.853 169.942 461.886 172.942 449.011C174.489 442.354 176.142 435.721 177.902 429.117C179.102 424.627 183.835 415.322 183.049 410.883C189.315 446.377 181.515 483.443 189.449 518.599C192.075 530.249 196.582 541.783 204.662 550.578C213.782 560.509 227.289 566.283 240.769 565.974C254.249 565.666 267.475 559.265 276.049 548.855C284.529 538.551 288.222 525.153 290.516 512.002C294.969 486.365 294.929 460.187 294.875 434.166C294.849 425.147 294.835 416.129 294.809 407.11C294.809 403.269 294.716 399.157 292.516 396.01C287.849 389.349 276.502 391.789 271.889 398.485C267.276 405.181 267.409 413.935 267.622 422.063C268.329 449.129 268.142 476.217 267.062 503.27C266.649 513.643 265.649 525.055 258.249 532.331C250.462 539.986 236.449 539.938 228.702 532.23C220.876 524.429 220.409 512.11 220.422 501.054C220.516 460.621 220.609 420.187 220.702 379.754C220.729 371.23 220.702 362.477 217.636 354.523C214.569 346.57 207.729 339.479 199.236 338.697C192.662 338.09 186.196 341.358 181.489 346.005C176.796 350.653 173.609 356.574 170.622 362.467C152.036 399.161 138.702 438.729 133.622 479.55C131.196 499.117 126.089 526.846 100.289 525.714C88.9956 525.219 79.0356 518.031 71.4223 509.682C43.8889 479.505 35.7554 432.05 34.4754 392.57C33.0354 348.333 42.4354 304.253 59.3421 263.482C72.5687 231.598 90.2622 201.561 111.569 174.393C122.622 160.307 136.329 147.542 153.262 141.725C165.515 137.514 179.142 137.554 190.995 143.037C214.449 153.882 220.462 177.645 216.502 201.401C216.036 204.225 197.915 229.871 187.329 235.049C187.329 235.049 178.862 241.871 179.329 247.362C179.329 247.362 178.742 250.409 182.395 254.106Z" fill="#E90C61"/>
</svg>
