<svg width="830" height="737" viewBox="0 0 830 737" fill="none" xmlns="http://www.w3.org/2000/svg">
<path d="M187.729 256.773C192.609 261.721 200.262 262.625 206.395 259.364C221.502 251.336 252.995 230.386 251.795 195.754C250.649 162.585 246.502 136.754 224.635 118.018C203.235 99.6823 174.235 98.2783 148.369 107.238C121.902 116.406 99.062 134.426 81.262 156.053C41.382 204.497 22.9286 268.544 12.2753 329.282C4.6886 372.574 1.96865 419.826 16.1953 462.108C33.5953 513.849 58.9409 585.166 136.441 569.666C142.982 568.358 151.529 563.454 155.915 558.337C163.195 549.848 164.022 538.718 165.155 528.109C166.489 515.548 168.342 503.008 170.462 490.552C172.675 477.52 175.275 464.553 178.275 451.678C179.822 445.021 181.475 438.388 183.235 431.784C184.435 427.294 189.169 417.989 188.382 413.55C194.649 449.044 186.849 486.11 194.782 521.266C197.409 532.916 201.915 544.45 209.995 553.245C219.115 563.176 232.622 568.95 246.102 568.641C259.582 568.333 272.809 561.932 281.382 551.522C289.862 541.218 293.555 527.82 295.849 514.669C300.302 489.032 300.262 462.854 300.209 436.833C300.182 427.814 300.169 418.796 300.142 409.777C300.142 405.936 300.049 401.824 297.849 398.677C293.182 392.016 281.835 394.456 277.222 401.152C272.609 407.848 272.742 416.602 272.955 424.73C273.662 451.796 273.475 478.884 272.395 505.937C271.982 516.31 270.982 527.722 263.582 534.998C255.795 542.653 241.782 542.605 234.035 534.897C226.209 527.096 225.742 514.777 225.755 503.721C225.849 463.288 225.942 422.854 226.035 382.421C226.062 373.897 226.035 365.144 222.969 357.19C219.902 349.237 213.062 342.146 204.569 341.364C197.995 340.757 191.529 344.025 186.822 348.672C182.129 353.32 178.942 359.241 175.955 365.134C157.369 401.828 144.035 441.396 138.955 482.217C136.529 501.784 131.422 529.513 105.622 528.381C94.3288 527.886 84.3688 520.698 76.7555 512.349C49.2221 482.172 41.0886 434.717 39.8086 395.237C38.3686 351 47.7686 306.92 64.6753 266.149C77.9019 234.265 95.5954 204.228 116.902 177.06C127.955 162.974 141.662 150.209 158.595 144.392C170.849 140.181 184.475 140.221 196.329 145.704C219.782 156.549 225.795 180.312 221.835 204.068C221.369 206.892 203.249 232.538 192.662 237.716C192.662 237.716 184.195 244.538 184.662 250.029C184.662 250.029 184.075 253.076 187.729 256.773Z" fill="#1F2636"/>
<path d="M288.196 143.557L298.476 314.632C298.862 321.167 304.276 326.265 310.822 326.265C317.702 326.265 323.262 320.645 323.196 313.761L321.756 175.363C321.756 175.363 325.129 149.716 355.956 148.068C370.302 149.716 372.889 175.128 375.249 177.951C377.596 180.775 391.716 185.716 395.716 170.892C399.716 156.068 392.662 124.304 361.369 120.304C330.076 116.304 317.369 141.716 316.662 146.657C315.596 140.275 306.716 122.803 292.556 133.825C289.582 136.14 287.969 139.799 288.196 143.557Z" fill="#1F2636"/>
<path d="M416.795 126.139C412.249 132.095 410.009 139.507 410.716 146.962C411.289 153.046 413.142 159.463 418.302 160.304C428.422 161.951 433.596 157.951 435.716 151.363C437.836 144.775 450.302 122.422 469.836 123.363C489.369 124.304 492.662 138.658 491.956 148.304C491.249 157.951 484.115 158.535 478.462 160.675C472.822 162.814 419.249 172.068 403.716 219.834C399.489 237.951 403.955 259.599 410.542 267.363C417.129 275.128 429.675 294.892 458.542 288.617C475.169 282.971 481.129 260.383 458.382 259.128C440.969 258.5 429.836 255.599 429.369 241.245C428.889 226.892 432.996 200.147 492.036 183.834V266.164C492.036 273.263 498.502 278.612 505.475 277.294L511.275 276.196C516.702 275.171 520.596 270.389 520.502 264.873L518.302 135.834C518.302 135.834 514.075 98.8135 476.262 95.6762C454.329 94.2055 430.329 108.364 416.795 126.139Z" fill="#1F2636"/>
<path d="M591.662 57.044L518.382 77.2347C510.329 79.4534 505.262 87.4093 506.662 95.6453C508.275 105.184 517.782 111.241 527.115 108.687L580.742 94.0053C564.302 133.552 547.862 173.1 531.422 212.648C524.795 228.595 516.489 244.089 526.395 261.044C534.062 274.168 547.835 271.916 561.142 271.157C575.942 270.315 590.648 267.88 604.942 263.961C636.328 255.355 675.062 239.405 691.489 209.769C717.849 162.24 733.382 49.7693 734.782 35.652C735.809 25.456 727.009 20.1693 717.315 24.2827C710.689 27.092 706.249 33.4267 705.289 40.5547C702.662 60.1613 695.462 113.687 694.942 114.711C694.315 115.965 685.222 133.221 668.595 129.769C651.969 126.319 653.222 110.423 652.902 100.801C651.942 71.3494 661.329 35.596 635.035 14.0613C622.502 3.79199 602.089 -1.39998 587.102 6.49869C580.169 10.1534 572.635 19.772 574.782 28.3573C575.022 29.2987 576.675 41.2987 589.142 34.9467C601.608 28.5933 619.489 32.1227 624.435 51.888C627.729 68.828 627.489 114.711 628.195 121.299C628.902 127.888 631.569 158.005 658.235 158.005C684.902 158.005 690.235 147.652 690.235 147.652C690.235 147.652 677.062 193.456 647.889 209.456C618.715 225.456 562.235 237.691 558.155 237.691C554.075 237.691 544.675 238.632 550.315 226.084C555.969 213.535 615.889 72.9853 615.889 72.9853C615.889 72.9853 621.889 59.2947 605.102 56.292C600.635 55.492 596.035 55.8387 591.662 57.044Z" fill="#1F2636"/>
<path d="M378.862 514.186C388.076 511.823 393.649 507.13 398.036 498.598C404.142 486.73 413.956 473.057 428.582 482.971C440.196 490.846 424.382 511.466 418.489 518.203C407.489 530.774 390.142 540.566 373.502 542.565C322.436 548.701 313.809 489.439 317.556 451.943C320.529 422.147 341.756 396.366 365.716 379.679C393.996 359.989 428.676 353.003 461.502 344.802C487.702 338.261 514.116 332.605 540.582 327.287C577.596 319.851 614.756 313.125 651.956 306.657C673.596 302.891 677.489 313.362 677.596 316.186C677.716 319.009 674.542 329.245 667.636 330.186C660.742 331.127 660.742 331.127 660.742 331.127L525.369 358.891L525.129 531.598C525.129 531.598 522.302 544.067 512.889 544.538C503.489 545.009 501.369 539.362 501.369 535.833C501.369 532.303 500.422 367.127 500.422 367.127C500.422 367.127 449.836 379.127 433.836 427.127C423.009 445.245 405.596 439.127 405.596 431.598C405.596 424.067 403.956 389.245 467.956 366.186C436.422 373.479 354.702 386.813 346.222 456.146C343.409 497.543 354.382 520.443 378.862 514.186Z" fill="#1F2636"/>
<path d="M590.929 368.303V506.029C590.929 506.029 587.489 518.891 572.582 518.107C566.462 518.142 563.489 514.186 563.489 508.225C563.489 502.265 563.489 383.362 563.489 383.362C563.489 383.362 561.329 370.891 590.929 368.303Z" fill="#1F2636"/>
<path d="M679.716 426.747C679.716 441.598 667.676 453.637 652.822 453.637C643.849 453.637 636.582 446.363 636.582 437.39V391.715C636.582 376.446 648.956 364.068 664.236 364.068H664.436C672.876 364.068 679.716 370.907 679.716 379.346V426.747ZM671.129 337.479H670.662C636.676 337.479 609.129 365.027 609.129 399.009V440.069C609.129 460.037 625.316 476.225 645.289 476.225C678.342 476.225 705.129 449.433 705.129 416.382V371.479C705.129 352.702 689.902 337.479 671.129 337.479Z" fill="#1F2636"/>
<path d="M724.422 456.304C724.422 456.304 725.075 345.496 725.075 345.472C725.142 332.682 739.049 317.753 752.769 323.005C759.315 325.51 762.542 332.958 765.755 338.718C768.569 343.754 771.422 348.77 774.275 353.785C781.209 365.97 788.182 378.13 795.155 390.285C797.702 394.721 800.249 399.156 802.809 403.589C803.462 404.724 805.835 407.492 805.835 408.853C805.835 408.846 805.835 321.272 805.835 321.272C805.835 316.849 807.222 312.485 810.035 309.068C812.089 306.566 814.929 304.421 818.662 304.421C827.595 304.421 829.489 312.538 829.489 318.068C829.489 323.592 829.489 428.318 829.489 428.538C829.489 437.476 820.915 443.382 812.622 443.678C805.142 443.946 800.609 439.492 796.889 433.598C794.889 430.421 748.662 344.696 748.662 344.696C748.542 366.454 748.435 388.212 748.329 409.97C748.289 417.208 748.249 424.445 748.209 431.681C748.169 439.497 749.702 448.762 745.435 455.648C741.529 461.953 724.555 468.645 724.422 456.304Z" fill="#1F2636"/>
<path d="M613.009 566.431C612.356 566.291 611.609 562.046 611.502 561.525C610.689 557.683 610.582 553.655 611.462 549.814C613.222 542.071 619.276 536.058 625.236 531.221C632.196 525.567 639.449 520.277 647.449 516.162C659.809 509.79 674.222 506.098 688.062 509.153C696.062 510.919 703.436 514.767 709.836 519.843C709.689 519.723 710.222 516.599 710.222 516.226C710.276 514.677 710.169 513.121 709.902 511.59C709.276 507.835 707.702 504.277 705.302 501.317C698.729 493.218 688.022 490.819 678.129 489.973C656.036 488.082 634.756 496.843 619.129 512.305C609.662 521.681 602.596 532.761 602.382 546.442C602.262 553.69 603.782 563.479 611.756 566.097C612.169 566.231 612.596 566.342 613.009 566.431Z" fill="#1F2636"/>
<path d="M628.422 541.794C628.422 541.794 658.542 511.049 696.342 519.833C688.822 513.558 663.702 510.403 642.222 523.911C632.502 529.994 628.422 541.794 628.422 541.794Z" fill="#1F2636"/>
<path d="M614.462 585.087C614.462 585.087 627.329 544.46 663.409 537.087C699.489 529.715 711.409 534.891 722.382 546.97C721.729 541.007 717.142 525.308 687.476 524.262C672.982 523.751 658.502 526.867 645.716 533.702C624.596 544.984 609.756 564.264 614.462 585.087Z" fill="#1F2636"/>
<path d="M736.662 596.695C736.076 596.428 735.089 596.068 733.756 595.668C719.836 591.575 667.982 583.988 638.302 638.242C637.982 638.815 637.662 639.402 637.356 639.988C633.596 630.895 631.089 623.202 631.089 623.202C631.089 623.202 642.849 613.482 638.222 598.735C634.849 588.455 623.476 589.162 622.542 589.162C621.596 589.162 619.329 588.775 621.676 581.948C621.676 581.948 640.662 533.482 704.182 543.202C717.516 546.188 731.796 571.748 736.662 596.695Z" fill="#1F2636"/>
<path d="M652.542 639.33C652.542 639.33 653.635 621.761 684.382 609.839C705.089 601.369 719.835 604.075 720.928 606.781C721.915 609.486 720.622 610.075 717.915 609.957C715.209 609.839 690.248 612.745 677.195 621.723C664.142 630.702 656.382 638.938 655.795 639.33C655.208 639.722 652.808 641.643 652.542 639.33Z" fill="#1F2636"/>
<path d="M762.862 641.086C755.462 616.578 742.155 609.399 701.529 616.144C676.262 620.338 640.196 648.459 643.956 678.262C647.156 703.66 676.742 713.556 704.502 709.007C729.769 704.868 773.369 675.91 762.862 641.086Z" fill="#1F2636"/>
<path d="M734.369 600.647C732.956 599.78 722.662 594.775 703.009 599.015C683.356 603.242 665.249 613.188 659.249 619.575C653.249 625.948 638.302 648.188 638.302 648.188L637.356 639.988C666.022 582.907 719.729 591.183 733.662 595.276C737.796 597.164 736.182 595.714 736.956 597.887C738.369 601.887 735.769 601.514 734.369 600.647Z" fill="#1F2636"/>
<path d="M593.595 602.499C593.595 602.499 602.076 617.244 600.969 629.794C611.796 628.224 632.195 623.598 632.195 609.008C632.195 594.42 621.369 592.774 618.302 594.186C615.249 595.598 598.782 601.636 593.595 602.499Z" fill="#1F2636"/>
<path d="M567.289 604.867C571.809 607.799 581.809 617.388 577.756 643.44C577.916 649.715 593.596 655.203 596.116 639.988C598.622 624.774 595.636 596.038 581.836 593.778C570.676 591.951 566.796 596.422 565.636 600.772C565.222 602.343 565.929 603.982 567.289 604.867Z" fill="#1F2636"/>
<path d="M553.596 610.419C553.596 610.419 567.249 608.536 570.303 615.596C573.369 622.655 571.249 637.319 570.303 639.987C569.369 642.655 553.369 647.596 536.889 652.302C520.423 657.007 295.089 730.027 279.409 733.478C263.716 736.93 229.529 743.203 227.636 711.831C225.756 683.282 269.369 677.132 283.796 673.304C298.222 669.478 553.596 610.419 553.596 610.419Z" fill="#1F2636"/>
<path d="M660.889 694.419C660.862 689.254 661.782 684.094 663.156 679.063C664.609 674.054 666.542 669.112 669.209 664.514C674.449 655.314 682.356 647.26 692.036 642.368C696.849 639.916 701.982 638.151 707.209 637.042C708.529 636.802 709.849 636.616 711.156 636.404C711.822 636.31 712.475 636.182 713.142 636.116L715.116 635.976C716.449 635.892 717.769 635.772 719.075 635.723L723.036 635.774C733.556 636.06 743.809 638.379 753.369 642.207C743.142 641.086 733.035 640.255 723.142 641.015L719.449 641.306L715.796 641.815L713.969 642.074L712.182 642.444C710.996 642.703 709.795 642.931 708.609 643.21C703.915 644.438 699.369 646.099 695.102 648.287C686.516 652.624 679.289 659.314 673.622 667.311C670.782 671.31 668.302 675.636 666.209 680.188C664.049 684.719 662.329 689.48 660.889 694.419Z" fill="#1F2636"/>
<path d="M182.395 254.106C187.275 259.054 194.929 259.958 201.062 256.697C216.169 248.669 247.662 227.719 246.462 193.087C245.315 159.918 241.169 134.087 219.302 115.351C197.902 97.0153 168.902 95.6113 143.036 104.571C116.569 113.739 93.7288 131.759 75.9288 153.386C36.0488 201.83 17.5954 265.877 6.94208 326.615C-0.64459 369.907 -4.78575 420.385 9.44091 462.666C26.8409 514.408 61.4409 579.79 133.715 566.395C136.941 565.797 146.196 560.787 150.582 555.67C157.862 547.181 158.689 536.051 159.822 525.442C161.156 512.881 163.009 500.341 165.129 487.885C167.342 474.853 169.942 461.886 172.942 449.011C174.489 442.354 176.142 435.721 177.902 429.117C179.102 424.627 183.835 415.322 183.049 410.883C189.315 446.377 181.515 483.443 189.449 518.599C192.075 530.249 196.582 541.783 204.662 550.578C213.782 560.509 227.289 566.283 240.769 565.974C254.249 565.666 267.475 559.265 276.049 548.855C284.529 538.551 288.222 525.153 290.516 512.002C294.969 486.365 294.929 460.187 294.875 434.166C294.849 425.147 294.835 416.129 294.809 407.11C294.809 403.269 294.716 399.157 292.516 396.01C287.849 389.349 276.502 391.789 271.889 398.485C267.276 405.181 267.409 413.935 267.622 422.063C268.329 449.129 268.142 476.217 267.062 503.27C266.649 513.643 265.649 525.055 258.249 532.331C250.462 539.986 236.449 539.938 228.702 532.23C220.876 524.429 220.409 512.11 220.422 501.054C220.516 460.621 220.609 420.187 220.702 379.754C220.729 371.23 220.702 362.477 217.636 354.523C214.569 346.57 207.729 339.479 199.236 338.697C192.662 338.09 186.196 341.358 181.489 346.005C176.796 350.653 173.609 356.574 170.622 362.467C152.036 399.161 138.702 438.729 133.622 479.55C131.196 499.117 126.089 526.846 100.289 525.714C88.9956 525.219 79.0356 518.031 71.4223 509.682C43.8889 479.505 35.7554 432.05 34.4754 392.57C33.0354 348.333 42.4354 304.253 59.3421 263.482C72.5687 231.598 90.2622 201.561 111.569 174.393C122.622 160.307 136.329 147.542 153.262 141.725C165.515 137.514 179.142 137.554 190.995 143.037C214.449 153.882 220.462 177.645 216.502 201.401C216.036 204.225 197.915 229.871 187.329 235.049C187.329 235.049 178.862 241.871 179.329 247.362C179.329 247.362 178.742 250.409 182.395 254.106Z" fill="#E90C61"/>
<path d="M282.862 140.89L293.142 311.965C293.529 318.5 298.942 323.598 305.489 323.598C312.369 323.598 317.929 317.978 317.862 311.094L316.422 172.696C316.422 172.696 319.796 147.049 350.622 145.401C364.969 147.049 367.555 172.461 369.915 175.284C372.262 178.108 386.382 183.049 390.382 168.225C394.382 153.401 387.329 121.637 356.036 117.637C324.742 113.637 312.035 139.049 311.329 143.99C310.262 137.608 301.382 120.136 287.222 131.158C284.249 133.473 282.635 137.132 282.862 140.89Z" fill="#E90C61"/>
<path d="M411.462 123.472C406.916 129.428 404.676 136.84 405.382 144.295C405.956 150.379 407.809 156.796 412.969 157.637C423.089 159.284 428.262 155.284 430.382 148.696C432.502 142.108 444.969 119.755 464.502 120.696C484.036 121.637 487.329 135.991 486.622 145.637C485.916 155.284 478.782 155.868 473.129 158.008C467.489 160.147 413.916 169.401 398.382 217.167C394.156 235.284 398.622 256.932 405.209 264.696C411.795 272.461 424.342 292.225 453.209 285.95C469.835 280.304 475.796 257.716 453.049 256.461C435.636 255.833 424.502 252.932 424.036 238.578C423.556 224.225 427.662 197.48 486.702 181.167V263.497C486.702 270.596 493.169 275.945 500.142 274.627L505.942 273.529C511.369 272.504 515.262 267.722 515.169 262.206L512.969 133.167C512.969 133.167 508.742 96.1465 470.929 93.0092C448.996 91.5385 424.996 105.697 411.462 123.472Z" fill="#E90C61"/>
<path d="M586.329 54.3775L513.049 74.5682C504.995 76.7869 499.929 84.7428 501.329 92.9788C502.942 102.517 512.449 108.575 521.782 106.02L575.409 91.3388C558.969 130.885 542.529 170.433 526.089 209.981C519.462 225.928 511.155 241.423 521.062 258.378C528.729 271.502 542.502 269.25 555.809 268.491C570.609 267.648 585.315 265.213 599.609 261.295C630.995 252.688 669.729 236.739 686.155 207.103C712.515 159.573 728.049 47.1028 729.449 32.9855C730.475 22.7895 721.675 17.5028 711.982 21.6162C705.355 24.4255 700.915 30.7602 699.955 37.8882C697.329 57.4948 690.129 111.02 689.609 112.044C688.982 113.299 679.889 130.555 663.262 127.103C646.635 123.652 647.889 107.756 647.569 98.1349C646.609 68.6829 655.995 32.9295 629.702 11.3948C617.169 1.12548 596.755 -4.06648 581.769 3.83218C574.835 7.48685 567.302 17.1055 569.449 25.6908C569.689 26.6322 571.342 38.6322 583.809 32.2802C596.275 25.9268 614.155 29.4562 619.102 49.2215C622.395 66.1615 622.155 112.044 622.862 118.632C623.569 125.222 626.235 155.339 652.902 155.339C679.569 155.339 684.902 144.986 684.902 144.986C684.902 144.986 671.729 190.789 642.555 206.789C613.382 222.789 556.902 235.024 552.822 235.024C548.742 235.024 539.342 235.965 544.982 223.417C550.635 210.868 610.555 70.3188 610.555 70.3188C610.555 70.3188 616.555 56.6281 599.769 53.6255C595.302 52.8255 590.702 53.1722 586.329 54.3775Z" fill="#E90C61"/>
<path d="M373.529 511.519C382.742 509.157 388.315 504.463 392.702 495.931C398.809 484.063 408.622 470.39 423.249 480.305C434.862 488.179 419.049 508.799 413.156 515.537C402.156 528.107 384.809 537.899 368.169 539.898C317.102 546.034 308.476 486.773 312.222 449.277C315.196 419.481 336.422 393.699 360.382 377.013C388.662 357.322 423.342 350.337 456.169 342.135C482.369 335.594 508.782 329.938 535.249 324.621C572.262 317.185 609.422 310.458 646.622 303.99C668.262 300.225 672.155 310.695 672.262 313.519C672.382 316.342 669.209 326.578 662.302 327.519C655.409 328.461 655.409 328.461 655.409 328.461L520.035 356.225L519.795 528.931C519.795 528.931 516.969 541.401 507.556 541.871C498.156 542.342 496.035 536.695 496.035 533.166C496.035 529.637 495.089 364.461 495.089 364.461C495.089 364.461 444.502 376.461 428.502 424.461C417.675 442.578 400.262 436.461 400.262 428.931C400.262 421.401 398.622 386.578 462.622 363.519C431.089 370.813 349.369 384.146 340.889 453.479C338.076 494.877 349.049 517.777 373.529 511.519Z" fill="#E90C61"/>
<path d="M585.595 365.637V503.362C585.595 503.362 582.155 516.225 567.249 515.441C561.129 515.476 558.155 511.519 558.155 505.558C558.155 499.598 558.155 380.696 558.155 380.696C558.155 380.696 555.995 368.225 585.595 365.637Z" fill="#E90C61"/>
<path d="M674.382 424.081C674.382 438.932 662.342 450.97 647.489 450.97C638.516 450.97 631.249 443.697 631.249 434.724V389.049C631.249 373.78 643.622 361.401 658.902 361.401H659.102C667.542 361.401 674.382 368.241 674.382 376.68V424.081ZM665.796 334.813H665.329C631.342 334.813 603.796 362.361 603.796 396.342V437.402C603.796 457.37 619.982 473.558 639.956 473.558C673.009 473.558 699.796 446.766 699.796 413.716V368.813C699.796 350.036 684.569 334.813 665.796 334.813Z" fill="#E90C61"/>
<path d="M719.089 453.637C719.089 453.637 719.742 342.829 719.742 342.805C719.808 330.016 733.715 315.086 747.435 320.337C753.982 322.844 757.209 330.292 760.422 336.052C763.235 341.088 766.088 346.104 768.942 351.118C775.875 363.304 782.849 375.464 789.822 387.618C792.369 392.054 794.915 396.489 797.475 400.922C798.128 402.057 800.502 404.825 800.502 406.186C800.502 406.18 800.502 318.605 800.502 318.605C800.502 314.182 801.889 309.818 804.702 306.401C806.755 303.9 809.595 301.754 813.328 301.754C822.262 301.754 824.155 309.872 824.155 315.401C824.155 320.925 824.155 425.652 824.155 425.872C824.155 434.809 815.582 440.716 807.289 441.012C799.809 441.28 795.275 436.825 791.555 430.932C789.555 427.754 743.328 342.029 743.328 342.029C743.208 363.788 743.102 385.545 742.995 407.304C742.955 414.541 742.915 421.778 742.875 429.014C742.835 436.83 744.369 446.096 740.102 452.981C736.195 459.286 719.222 465.978 719.089 453.637Z" fill="#E90C61"/>
<path d="M607.676 563.765C607.022 563.625 606.276 559.379 606.169 558.858C605.356 555.017 605.249 550.989 606.129 547.147C607.889 539.405 613.942 533.392 619.902 528.554C626.862 522.901 634.116 517.61 642.116 513.496C654.476 507.124 668.889 503.431 682.729 506.486C690.729 508.253 698.102 512.101 704.502 517.177C704.356 517.057 704.889 513.933 704.889 513.56C704.943 512.01 704.836 510.454 704.569 508.924C703.942 505.169 702.369 501.61 699.969 498.65C693.396 490.551 682.689 488.153 672.796 487.306C650.702 485.415 629.422 494.177 613.796 509.638C604.329 519.014 597.262 530.094 597.049 543.775C596.929 551.023 598.449 560.813 606.423 563.43C606.836 563.565 607.262 563.675 607.676 563.765Z" fill="#E90C61"/>
<path d="M623.089 539.128C623.089 539.128 653.209 508.382 691.009 517.166C683.489 510.892 658.369 507.737 636.889 521.245C627.169 527.328 623.089 539.128 623.089 539.128Z" fill="#E90C61"/>
<path d="M609.129 582.421C609.129 582.421 621.995 541.794 658.075 534.421C694.155 527.049 706.076 532.225 717.049 544.303C716.396 538.341 711.809 522.642 682.142 521.595C667.649 521.085 653.169 524.201 640.382 531.035C619.262 542.318 604.422 561.598 609.129 582.421Z" fill="#E90C61"/>
<path d="M731.329 594.028C730.742 593.761 729.756 593.401 728.422 593.001C714.502 588.908 662.649 581.321 632.969 635.575C632.649 636.148 632.329 636.735 632.022 637.321C628.262 628.228 625.756 620.535 625.756 620.535C625.756 620.535 637.516 610.815 632.889 596.068C629.516 585.788 618.142 586.495 617.209 586.495C616.262 586.495 613.996 586.108 616.342 579.282C616.342 579.282 635.329 530.815 698.849 540.535C712.182 543.521 726.462 569.081 731.329 594.028Z" fill="#E90C61"/>
<path d="M647.209 636.663C647.209 636.663 648.302 619.094 679.049 607.172C699.756 598.702 714.502 601.408 715.595 604.114C716.582 606.819 715.289 607.408 712.582 607.29C709.876 607.172 684.915 610.078 671.862 619.056C658.809 628.035 651.049 636.271 650.462 636.663C649.875 637.055 647.475 638.976 647.209 636.663Z" fill="#E90C61"/>
<path d="M757.529 638.419C750.129 613.911 736.822 606.732 696.196 613.478C670.929 617.671 634.862 645.792 638.622 675.595C641.822 700.994 671.409 710.89 699.169 706.34C724.436 702.202 768.036 673.243 757.529 638.419Z" fill="#E90C61"/>
<path d="M729.036 597.98C727.622 597.114 717.329 592.108 697.676 596.348C678.022 600.575 659.916 610.522 653.916 616.908C647.916 623.282 632.969 645.522 632.969 645.522L632.022 637.322C660.689 580.24 714.396 588.516 728.329 592.61C732.462 594.498 730.849 593.047 731.622 595.22C733.036 599.22 730.436 598.847 729.036 597.98Z" fill="#E90C61"/>
<path d="M588.262 599.832C588.262 599.832 596.742 614.578 595.635 627.127C606.462 625.558 626.862 620.931 626.862 606.342C626.862 591.754 616.035 590.107 612.969 591.519C609.915 592.931 593.449 598.97 588.262 599.832Z" fill="#E90C61"/>
<path d="M561.956 602.201C566.476 605.133 576.476 614.722 572.422 640.774C572.582 647.049 588.262 652.537 590.782 637.322C593.289 622.107 590.302 593.371 576.502 591.111C565.342 589.285 561.462 593.755 560.302 598.106C559.889 599.677 560.596 601.315 561.956 602.201Z" fill="#E90C61"/>
<path d="M548.262 607.752C548.262 607.752 561.916 605.87 564.969 612.93C568.036 619.988 565.916 634.652 564.969 637.32C564.036 639.988 548.036 644.93 531.556 649.635C515.089 654.34 289.756 727.36 274.076 730.811C258.382 734.263 224.196 740.536 222.302 709.164C220.422 680.615 264.036 674.466 278.462 670.638C292.889 666.811 548.262 607.752 548.262 607.752Z" fill="#E90C61"/>
<path d="M655.555 691.752C655.529 686.587 656.449 681.427 657.822 676.396C659.275 671.387 661.209 666.446 663.875 661.847C669.115 652.647 677.022 644.594 686.702 639.702C691.515 637.25 696.649 635.484 701.875 634.375C703.195 634.135 704.515 633.95 705.822 633.738C706.489 633.643 707.142 633.515 707.809 633.45L709.782 633.31C711.115 633.226 712.435 633.106 713.742 633.056L717.702 633.107C728.222 633.394 738.475 635.712 748.035 639.54C737.809 638.419 727.702 637.588 717.809 638.348L714.115 638.639L710.462 639.148L708.635 639.407L706.849 639.778C705.662 640.036 704.462 640.264 703.275 640.543C698.582 641.771 694.035 643.432 689.769 645.62C681.182 649.958 673.955 656.647 668.289 664.644C665.449 668.643 662.969 672.97 660.875 677.522C658.715 682.052 656.995 686.814 655.555 691.752Z" fill="#E90C61"/>
</svg>
