<svg width="645" height="609" viewBox="0 0 645 609" fill="none" xmlns="http://www.w3.org/2000/svg">
<circle cx="304.5" cy="304.5" r="304.5" fill="black"/>
<path d="M383.096 251.06C382.601 251.078 381.296 248.163 381.125 247.808C379.845 245.195 379.039 242.32 378.976 239.401C378.839 233.519 382.1 228.103 385.506 223.549C389.483 218.227 393.737 213.113 398.74 208.708C406.467 201.893 416.154 196.631 426.651 196.32C432.718 196.141 438.713 197.571 444.23 200.06C444.103 200 443.92 197.659 443.853 197.391C443.611 196.268 443.252 195.169 442.784 194.118C441.654 191.534 439.879 189.262 437.619 187.569C431.43 182.941 423.303 183.155 416.042 184.338C399.826 186.979 386.123 197.126 377.694 211.064C372.59 219.514 369.519 228.754 371.842 238.622C373.068 243.851 375.932 250.609 382.135 251.047C382.456 251.068 382.782 251.071 383.096 251.06Z" fill="#E90C61"/>
<path d="M472.416 238.419C471.946 238.334 471.172 238.254 470.141 238.208C459.399 237.787 420.77 241.723 409.267 286.075C409.141 286.545 409.017 287.025 408.903 287.502C404.556 281.649 401.362 276.575 401.362 276.575C401.362 276.575 408.052 267.463 402.058 257.705C397.774 250.93 389.73 253.496 389.059 253.665C388.379 253.837 386.681 253.969 387.131 248.64C387.131 248.64 391.999 210.38 439.396 205.865C449.516 205.598 464.403 221.377 472.416 238.419Z" fill="#E90C61"/>
<path d="M499.276 263.57C489.523 247.302 478.663 244.553 450.695 256.753C433.3 264.34 412.478 291.074 420.575 311.805C427.471 329.475 450.52 331.229 469.642 322.935C487.046 315.387 513.129 286.689 499.276 263.57Z" fill="#E90C61"/>
<path d="M471.483 241.674C470.311 241.307 462.009 239.574 448.656 246.178C435.301 252.773 424.092 263.197 420.938 268.872C417.781 274.537 411.068 293.222 411.068 293.222L408.903 287.502C419.166 241.301 459.252 237.525 470.003 237.943C473.315 238.552 471.893 237.801 472.842 239.223C474.582 241.841 472.646 242.043 471.483 241.674Z" fill="#E90C61"/>
<path d="M370.677 268.488C370.677 268.488 379.439 277.547 380.916 286.764C388.41 283.677 402.23 276.66 399.589 266.178C396.948 255.696 388.871 256.473 386.923 258.043C384.985 259.61 374.247 266.93 370.677 268.488Z" fill="#E90C61"/>
<path d="M351.205 274.952C354.983 276.24 363.903 281.32 365.707 300.771C366.958 305.25 379.217 306.355 378.274 294.967C377.32 283.582 369.973 263.477 359.648 264.351C351.3 265.059 349.321 268.973 349.275 272.309C349.263 273.512 350.067 274.562 351.205 274.952Z" fill="#E90C61"/>
<path d="M343.371 281.419C343.371 281.419 352.84 277.595 356.312 282.115C359.793 286.631 360.924 297.551 360.727 299.639C360.54 301.725 349.939 308.171 338.95 314.535C327.971 320.897 179.292 414.151 168.651 419.469C158.001 424.79 134.574 435.486 127.535 413.288C121.016 393.117 151.238 380.803 160.91 375.442C170.583 370.081 343.371 281.419 343.371 281.419Z" fill="#E90C61"/>
</svg>
